<?xml version="1.0" standalone="no"?>
<!DOCTYPE svg PUBLIC "-//W3C//DTD SVG 1.1//EN" "http://www.w3.org/Graphics/SVG/1.1/DTD/svg11.dtd" >
<svg xmlns="http://www.w3.org/2000/svg" xmlns:xlink="http://www.w3.org/1999/xlink" version="1.1">
<metadata>
Created by FontForge 20170731 at Fri May 22 09:48:14 2020
 By Aleksey,,,
</metadata>
<defs>
<font id="linecons" horiz-adv-x="1024" >
  <font-face 
    font-family="linecons"
    font-weight="400"
    font-stretch="normal"
    units-per-em="1024"
    panose-1="2 0 5 3 0 0 0 0 0 0"
    ascent="960"
    descent="-64"
    bbox="-0.6 -64.6415 1024.64 960.314"
    underline-thickness="0"
    underline-position="0"
    unicode-range="U+0020-E62F"
  />
<missing-glyph 
 />
    <glyph glyph-name=".notdef" 
 />
    <glyph glyph-name=".notdef" 
 />
    <glyph glyph-name=".null" horiz-adv-x="0" 
 />
    <glyph glyph-name="nonmarkingreturn" horiz-adv-x="341" 
 />
    <glyph glyph-name="space" unicode=" " horiz-adv-x="512" 
 />
    <glyph glyph-name="uniE600" unicode="&#xe600;" 
d="M934 792q-87 86 -209.5 88t-212.5 -79q-90 81 -212.5 79t-209.5 -88q-90 -89 -90 -215t90 -215q353 -350 354 -350q18 -18 43 -24.5t50 0t44 24.5l353 350q90 89 90 215t-90 215zM889 407l-354 -350q-10 -9 -23 -9t-23 9l-353 350q-71 71 -71 170t71 169q26 27 59.5 44
t69 22.5t71.5 1.5t70 -19.5t63 -41.5l43 -39l43 39q72 65 168.5 63t165.5 -70q70 -70 70 -169t-70 -170zM296 720q4 0 8 -2t6 -6t2 -8t-2 -8t-6 -6t-8 -2q-43 0 -73.5 -30.5t-30.5 -73.5q0 -4 -2 -8t-6 -6t-8 -2q-7 0 -11.5 4.5t-4.5 11.5q0 37 18 68.5t49.5 49.5t68.5 18z
" />
    <glyph glyph-name="uniE601" unicode="&#xe601;" 
d="M829 539q-10 111 -91.5 186t-193.5 75q-43 0 -83 -12.5t-73.5 -34.5t-60.5 -52.5t-44 -67.5q-11 3 -21.5 5t-21.5 2q-60 0 -102 -42t-42 -102q0 -6 0.5 -11.5t1.5 -11.5t2.5 -11t3.5 -11q-47 -28 -75.5 -75t-28.5 -104q0 -86 61 -147t147 -61h576q99 0 169.5 70.5
t70.5 169.5q0 58 -25.5 108t-70 83.5t-99.5 43.5zM784 128h-576q-60 0 -102 42.5t-42 101.5q0 38 19 71t53 53q33 19 37.5 30t-8.5 45q-5 14 -5 25q0 33 23.5 56.5t56.5 23.5q21 1 43 -7q30 -12 42 4q4 7 14 27l2 6q19 39 50 68.5t70.5 45.5t82.5 16q86 0 149.5 -58
t72.5 -145q1 -20 2 -27t7.5 -14t13.5 -9t28 -6t39.5 -12.5t34.5 -21t29 -28t21.5 -33t13.5 -37.5t5 -41q0 -73 -51.5 -124.5t-124.5 -51.5z" />
    <glyph glyph-name="uniE602" unicode="&#xe602;" 
d="M1020 558q-4 13 -13 23t-20.5 17t-25.5 9l-266 39l-116 241q-9 19 -27.5 30t-39.5 11q-9 0 -17 -2t-15.5 -5.5t-14 -8.5t-11.5 -11.5t-9 -13.5l-116 -241l-266 -39q-14 -2 -25.5 -9t-20.5 -17t-13 -23q-7 -19 -2 -38.5t19 -34.5l195 -195l-45 -270q-3 -21 5 -40t25 -31
q20 -13 43 -13q9 0 18 2.5t18 6.5l232 125l232 -125q4 -2 8.5 -4t9 -3t9 -1.5t9.5 -0.5q23 0 43 13q17 12 25 31t5 40l-45 270l195 195q31 31 17 73zM755 340q-26 -26 -20 -62l45 -270l-232 125q-9 5 -18 7t-18 2t-18 -2t-18 -7l-232 -125l45 270q3 17 -2.5 33.5t-17.5 28.5
l-195 195l266 40q12 2 23 7.5t19.5 14t13.5 19.5l116 240l116 -240q17 -35 56 -41l266 -40z" />
    <glyph glyph-name="uniE603" unicode="&#xe603;" 
d="M709 684q-130 27 -261 27t-261 -27q-18 -4 -24 -21q-70 -212 0 -423q2 -5 5.5 -9.5t8 -7.5t10.5 -4q131 -27 261.5 -27t260.5 27q19 4 24 21q23 70 31 140.5t0 141.5t-31 141q-5 17 -24 21zM703 250q-255 -52 -510 0q-66 201 0 403q255 52 510 0q66 -202 0 -403zM987 758
q-4 19 -19 32.5t-35 15.5q-210 26 -420.5 26t-420.5 -26q-10 -1 -19 -5t-16 -10.5t-12.5 -15t-7.5 -17.5q-74 -310 0 -620q5 -19 20 -32.5t35 -15.5q49 -6 99.5 -11t102.5 -8q-5 -4 -6 -7q0 -13 65.5 -22.5t158.5 -9.5q46 0 87.5 2.5t71.5 7t47.5 10t17.5 12.5q-1 4 -6 7
q106 7 203 19q13 1 24.5 7.5t19 17t10.5 23.5q74 310 0 620zM925 153q-413 -50 -826 0q-70 295 0 590q413 50 826 0q70 -295 0 -590zM848 576q13 0 24 6.5t17.5 17.5t6.5 24t-6.5 24t-17.5 17.5t-24 6.5t-24 -6.5t-17.5 -17.5t-6.5 -24t6.5 -24t17.5 -17.5t24 -6.5zM848 640
q7 0 11.5 -4.5t4.5 -11.5t-4.5 -11.5t-11 -4.5t-11.5 4.5t-5 11.5q0 4 2 8t6 6t8 2zM880 256q7 0 11.5 -4.5t4.5 -11.5t-4.5 -11.5t-11.5 -4.5h-96q-6 0 -11 4.5t-5 11.5t5 11.5t11 4.5h96zM912 352q5 0 8.5 -2t5.5 -6t2 -8q0 -7 -4.5 -11.5t-11.5 -4.5h-96q-6 0 -11 4.5
t-5 11.5t5 11.5t11 4.5h96zM912 448q5 0 8.5 -2t5.5 -6t2 -8q0 -7 -4.5 -11.5t-11.5 -4.5h-96q-3 0 -6 1.5t-5 3.5t-3.5 5t-1.5 6q0 4 2 8t6 6t8 2h96zM432 582q5 0 8.5 -2t5.5 -5.5t2 -7.5t-2 -8t-6 -6.5t-8 -2.5l-120 -8q-4 0 -8 -2.5t-6.5 -6.5t-3.5 -8l-5 -61
q0 -7 -5 -11.5t-11.5 -4.5t-11 4.5t-4.5 11.5l10 89q1 7 6.5 12t11.5 6z" />
    <glyph glyph-name="uniE604" unicode="&#xe604;" 
d="M864 512q0 58 -23 111.5t-61.5 92t-92 61.5t-111.5 23q-7 0 -11.5 4.5t-4.5 11.5t4.5 11.5t11.5 4.5h1q65 0 124 -25.5t101.5 -68.5t68 -102t25.5 -124q0 -7 -4.5 -11.5t-11.5 -4.5q-3 0 -5 1t-4 2.5t-3.5 3t-2.5 4t-1 5.5zM292 932q-28 28 -68 28q-9 0 -18.5 -2
t-18.5 -5q-17 -8 -30.5 -21.5t-21 -31t-7.5 -36.5v-440l-100 -100q-28 -28 -28 -68t28 -68l224 -224q29 -28 68 -28q40 0 68 28l100 100h440q29 0 53.5 16t35.5 43t5 55.5t-26 49.5zM442 109l-99 -100q-10 -9 -23 -9t-23 9l-224 224q-5 6 -7 12t-2 11q0 13 9 23l100 99
q0 1 1 1l269 -269q0 -1 -1 -1zM488 128q-2 0 -15 -3l-284 285q3 12 3 14v385l681 -681h-385zM958 148q-9 -20 -30 -20h-10l-726 726v10q0 6 2.5 12t7 10.5t10.5 7t12 2.5q13 0 23 -9l704 -704q14 -16 7 -35zM576 896q-13 0 -22.5 9.5t-9.5 22.5t9.5 22.5t22.5 9.5h1
q91 0 173.5 -35.5t142.5 -95.5t95.5 -143t35.5 -174q0 -13 -9.5 -22.5t-22.5 -9.5q-9 0 -16 4.5t-11.5 11.5t-4.5 16q0 104 -51.5 192.5t-140 140t-192.5 51.5z" />
    <glyph glyph-name="uniE605" unicode="&#xe605;" 
d="M960 768h-28q-27 0 -45 -18l-87 -86v40q0 40 -28 68t-68 28h-608q-40 0 -68 -28t-28 -68v-512q0 -40 28 -68t68 -28h608q40 0 68 28t28 68v39l87 -85q3 -3 6 -5.5t7 -4.5t7.5 -4t7.5 -3t8 -1.5t9 -0.5h28q17 0 32 8.5t23.5 23.5t8.5 32v513q0 27 -18.5 45.5t-45.5 18.5z
M96 160q-13 0 -22.5 9.5t-9.5 22.5v512q0 13 9.5 22.5t22.5 9.5h608q13 0 22.5 -9.5t9.5 -22.5v-512q0 -13 -9.5 -22.5t-22.5 -9.5h-608zM960 191h-32l-128 128v1l-32 32v192l160 160h32v-513z" />
    <glyph glyph-name="uniE606" unicode="&#xe606;" 
d="M959 742q-2 38 -29.5 64t-65.5 26h-96v32q0 40 -28 68t-68 28h-320q-40 0 -68 -28t-28 -68v-32h-96q-38 0 -65.5 -26t-29.5 -64h-1v-70q0 -27 19 -45.5t45 -18.5v-544q0 -53 37.5 -90.5t90.5 -37.5h512q53 0 90.5 37.5t37.5 90.5v544q13 0 25 5t20.5 13.5t13.5 20.5t5 25
v70h-1zM320 864q0 9 4.5 16t11.5 11.5t16 4.5h320q13 0 22.5 -9.5t9.5 -22.5v-32h-384v32zM832 64q0 -27 -19 -45.5t-45 -18.5h-512q-26 0 -45 18.5t-19 45.5v544h640v-544zM896 704v-32h-768v64q0 13 9.5 22.5t22.5 9.5h704q13 0 22.5 -9.5t9.5 -22.5v-32zM288 64h64
q13 0 22.5 9.5t9.5 22.5v416q0 13 -9.5 22.5t-22.5 9.5h-64q-13 0 -22.5 -9.5t-9.5 -22.5v-416q0 -13 9.5 -22.5t22.5 -9.5zM288 512h64v-416h-64v416zM480 64h64q13 0 22.5 9.5t9.5 22.5v416q0 13 -9.5 22.5t-22.5 9.5h-64q-13 0 -22.5 -9.5t-9.5 -22.5v-416
q0 -13 9.5 -22.5t22.5 -9.5zM480 512h64v-416h-64v416zM672 64h64q13 0 22.5 9.5t9.5 22.5v416q0 13 -9.5 22.5t-22.5 9.5h-64q-13 0 -22.5 -9.5t-9.5 -22.5v-416q0 -13 9.5 -22.5t22.5 -9.5zM672 512h64v-416h-64v416z" />
    <glyph glyph-name="uniE607" unicode="&#xe607;" 
d="M996 53q-16 11 -42 25.5t-102 45.5t-153 48q44 55 75.5 126.5t46.5 134.5q9 39 10.5 91t-6 109t-29.5 115.5t-57 102.5q-86 109 -227 109t-227 -109q-35 -44 -57 -102.5t-29.5 -115.5t-6 -109t10.5 -91q15 -63 46.5 -134.5t75.5 -126.5q-77 -17 -153 -48t-102 -45.5
t-41 -25.5q-18 -11 -25 -31t-1 -40.5t23 -33t38 -12.5h896q21 0 38 12.5t23 33.5q12 38 -18 66q-4 3 -7 5zM649 211l-11 -13q-57 -66 -126 -66t-126 66l-10 13q-68 86 -98.5 192.5t-16.5 212.5q7 54 25.5 102t48 89t75.5 65t102 24t102 -24t75.5 -65t48 -89t25.5 -102
q9 -70 -1.5 -142.5t-39.5 -139t-73 -123.5zM64 0q13 9 37.5 22.5t95 42t142.5 44.5l79 17q46 -30 94 -30q25 0 48.5 8t45.5 22l79 -17q72 -15 142 -43.5t94 -42t39 -23.5h-896z" />
    <glyph glyph-name="uniE608" unicode="&#xe608;" 
d="M704 960q-65 0 -124 -25.5t-102 -68t-68.5 -102t-25.5 -124.5q0 -30 6 -59t17 -57l-389 -389q-18 -18 -18 -39v-96q0 -26 19 -45t45 -19h96q21 0 39 18l46 46h75q18 0 32.5 8.5t23 23.5t8.5 32v64h64q18 0 32.5 8.5t23 23.5t8.5 32v75l76 76q58 -23 116 -23
q87 0 160.5 43t116.5 116.5t43 160.5t-43 160.5t-116.5 116.5t-160.5 43zM704 384q-23 0 -46 4.5t-43.5 12.5t-39.5 19l-11 -11l-97 -97q-9 -9 -14 -20.5t-5 -24.5v-75h-64q-26 0 -45 -18.5t-19 -45.5v-64h-75q-26 0 -45 -19l-45 -45h-91v91l373 373l47 47q-36 61 -36 129
q0 106 75 181t181 75q70 0 129 -34t93 -93t34 -129t-34 -128.5t-93 -93t-129 -34.5zM890 696q-54 76 -130 130q-6 5 -13.5 6t-14.5 -2q-67 -23 -90 -90q-1 -2 -1.5 -3.5t-0.5 -3.5v-4q0 -9 6 -18q54 -75 130 -129q13 -10 28 -4q22 7 39.5 20t30.5 30.5t20 39.5q1 3 1.5 5.5
t0.5 4.5q0 10 -6 18zM794 608q-70 50 -122 121q9 26 26.5 44t43.5 27q71 -51 122 -122q-6 -17 -16 -31t-23.5 -23.5t-30.5 -15.5z" />
    <glyph glyph-name="uniE609" unicode="&#xe609;" 
d="M640 960q-63 0 -121.5 -19.5t-105.5 -55t-82.5 -82.5t-55 -106t-19.5 -121q0 -95 45 -180l-267 -267q-16 -15 -25 -36t-9 -44q0 -47 33 -80t80 -33t80 34l267 267q85 -45 180 -45q104 0 192.5 51.5t140 140t51.5 192.5t-51.5 192.5t-140 140t-192.5 51.5zM153 10
q-16 -18 -40 -18q-15 0 -28 7.5t-21 20.5t-8 29q0 23 18 40v1l258 258q34 -46 79 -80zM640 256q-87 0 -160.5 42.5t-116.5 116.5t-43 161q0 65 25.5 124t68 102t102 68.5t124.5 25.5q87 0 160.5 -43t116.5 -116.5t43 -160.5t-43 -161t-116.5 -116.5t-160.5 -42.5zM640 800
q7 0 11.5 -5t4.5 -11q0 -3 -1 -5.5t-2.5 -4.5t-3.5 -3.5t-4 -2t-5 -0.5q-39 0 -74.5 -15.5t-61.5 -41t-41 -61t-15 -74.5q0 -5 -2 -8.5t-6 -5.5t-8 -2q-7 0 -11.5 4.5t-4.5 11.5q0 93 65.5 158.5t158.5 65.5z" />
    <glyph glyph-name="uniE60A" unicode="&#xe60a;" 
d="M1023 455v2.5t-1 1.5q0 1 -0.5 1t-0.5 0.5v1.5v1q-71 135 -210.5 220t-297.5 85t-298 -85t-210 -220l-1 -1v-1v-1l-1 -1v-1.5v-2.5q-2 -4 -2 -7q0 -2 2 -7v-1.5v-2.5l1 -1q0 -1 0.5 -1.5t0.5 -1.5q70 -135 210 -220t298 -85t297.5 85t210.5 220v1v1l1 1v1q1 0 1 2v2
q1 5 1 7t-1 7zM513 192q-89 0 -175 32t-155.5 90t-112.5 134q66 116 187 186t255.5 70t256 -70.5t187.5 -185.5q-19 -33 -43 -62.5t-52 -55.5t-60 -47.5t-66.5 -38t-71 -28.5t-74.5 -18t-76 -6zM513 576q6 0 11 -4.5t5 -11.5q0 -4 -2.5 -8t-6 -6t-7.5 -2q-26 0 -48.5 -13
t-35 -35t-12.5 -48q0 -6 -5 -11t-11.5 -5t-11 5t-4.5 11q0 53 37.5 90.5t90.5 37.5zM512 672q-93 0 -158.5 -65.5t-65.5 -158.5t65.5 -158.5t158.5 -65.5t158.5 65.5t65.5 158.5t-65.5 158.5t-158.5 65.5zM512 256q-79 0 -135.5 56.5t-56.5 135.5t56.5 135.5t135.5 56.5
t135.5 -56.5t56.5 -135.5t-56.5 -135.5t-135.5 -56.5z" />
    <glyph glyph-name="uniE60B" unicode="&#xe60b;" 
d="M512 736q7 0 11.5 -4.5t4.5 -11.5t-4.5 -11.5t-11.5 -4.5q-128 0 -224 -57.5t-96 -134.5q0 -7 -4.5 -11.5t-11.5 -4.5t-11.5 4.5t-4.5 11.5q0 91 104.5 157.5t247.5 66.5zM512 896q-139 0 -257 -51.5t-186.5 -140t-68.5 -192.5q0 -65 28 -125.5t78 -109t118 -83.5v-1v-1
q0 -12 -2.5 -24.5t-7 -25t-9 -23.5t-11 -23.5t-11.5 -20.5t-11.5 -19t-9.5 -16q-1 -2 -1.5 -5t-0.5 -6q0 -12 8.5 -20.5t20.5 -8.5h3.5t3.5 0.5t1 -0.5q35 6 72 24t66 40.5t48.5 40.5t29.5 30q25 -3 49.5 -5t49.5 -2q139 0 257 51.5t186.5 140t68.5 192.5t-68.5 192.5
t-186.5 140t-257 51.5zM512 192q-22 0 -44.5 1.5t-44.5 5.5h-10q-30 0 -49 -23q-13 -16 -40.5 -39.5t-58.5 -41.5q2 5 4 9.5t4 9.5t3.5 10t3 10.5t2.5 10.5t2.5 10.5t2 11l1 11t0.5 11.5v5q0 40 -35 57q-59 30 -101.5 71.5t-65 90t-22.5 99.5q0 65 35.5 124t95.5 102
t143 68.5t174 25.5q185 0 316.5 -94t131.5 -226t-131.5 -226t-316.5 -94z" />
    <glyph glyph-name="uniE60C" unicode="&#xe60c;" 
d="M1022 369l-128 481q-6 20 -23.5 33t-38.5 13h-640q-21 0 -38.5 -13t-23.5 -33l-128 -481q-1 -4 -1.5 -8.5t-0.5 -8.5v-224q0 -53 37.5 -90.5t90.5 -37.5h768q53 0 90.5 37.5t37.5 90.5v224q0 9 -2 17zM960 128q0 -26 -19 -45t-45 -19h-768q-26 0 -45 19t-19 45v224
l128 480h640l128 -480v-224zM760 768h-496q-5 0 -10 -2t-9 -5t-7 -7.5t-5 -9.5l-110 -384q-4 -15 5.5 -27.5t25.5 -12.5h146l46 -93q18 -35 58 -35h216q40 0 58 35l46 93h146q16 0 25 13q3 3 5 8t2 9.5t-1 9.5l-110 384q-3 11 -11.5 17.5t-19.5 6.5zM777 384h-53
q-40 0 -57 -35l-47 -93h-216l-47 93q-5 10 -14 18t-20 12.5t-23 4.5h-129l93 352h496l93 -352h-76z" />
    <glyph glyph-name="uniE60D" unicode="&#xe60d;" 
d="M900 799l-39 117q-7 20 -23.5 32t-37.5 12h-576q-14 0 -26 -5.5t-21 -15.5t-14 -23l-39 -117q-7 0 -14 -2t-12.5 -5.5t-11 -7.5t-9.5 -9.5t-7 -11.5t-4.5 -13t-1.5 -14v-96q0 -26 19 -45t45 -19h33q0 -1 -0.5 -3.5t-0.5 -3.5l64 -576q3 -24 21.5 -40.5t42.5 -16.5h448
q24 0 42.5 16.5t21.5 40.5l64 576q0 1 -1 4v3h33q13 0 25 5t20.5 13.5t13.5 20.5t5 25v96q0 6 -1 12.5t-3.5 11.5t-6 10t-7.5 9.5t-8.5 8t-10 6t-11.5 4t-12 1.5zM224 896h576l32 -96h-640zM288 0l-11 96h470l-11 -96h-448zM750 128h-476l-36 320h548zM789 480h-554l-11 96
h576zM896 640h-768v96h768v-96z" />
    <glyph glyph-name="uniE60E" unicode="&#xe60e;" 
d="M768 960h-512q-40 0 -68 -28t-28 -68v-832q0 -40 28 -68t68 -28h512q40 0 68 28t28 68v832q0 40 -28 68t-68 28zM800 32q0 -13 -9.5 -22.5t-22.5 -9.5h-512q-13 0 -22.5 9.5t-9.5 22.5v64h576v-64zM800 128h-576v640h576v-640zM800 800h-576v64q0 13 9.5 22.5t22.5 9.5
h512q13 0 22.5 -9.5t9.5 -22.5v-64zM576 848q0 -7 -4.5 -11.5t-11.5 -4.5h-96q-7 0 -11.5 4.5t-4.5 11.5t4.5 11.5t11.5 4.5h96q7 0 11.5 -4.5t4.5 -11.5zM544 48.5q0 -6.5 -4.5 -11.5t-11.5 -5h-32q-4 0 -8 2t-6 6t-2 8q0 7 4.5 11.5t11.5 4.5h32q7 0 11.5 -4.5t4.5 -11z
" />
    <glyph glyph-name="uniE60F" unicode="&#xe60f;" 
d="M928 960h-704q-40 0 -68 -28t-28 -68v-64h-32q-40 0 -68 -28t-28 -68v-640q0 -53 37.5 -90.5t90.5 -37.5h768q53 0 90.5 37.5t37.5 90.5v800q0 40 -28 68t-68 28zM960 64q0 -26 -19 -45t-45 -19h-768q-26 0 -45 19t-19 45v640q0 13 9.5 22.5t22.5 9.5h32v-640
q0 -13 9.5 -22.5t22.5 -9.5t22.5 9.5t9.5 22.5v768q0 13 9.5 22.5t22.5 9.5h704q13 0 22.5 -9.5t9.5 -22.5v-800zM624 544q-7 0 -11.5 4.5t-4.5 11.5q0 2 0.5 4t1.5 4t2.5 3.5t3.5 2.5t4 1.5t4 0.5h256q4 0 8 -2t6 -6t2 -8q0 -3 -1 -5.5t-2.5 -4.5t-3.5 -3.5t-4 -2t-5 -0.5
h-256zM624 640q-7 0 -11.5 4.5t-4.5 11.5q0 2 0.5 4t1.5 4t2.5 3.5t3.5 2.5t4 1.5t4 0.5h256q4 0 8 -2t6 -6t2 -8q0 -3 -1 -5.5t-2.5 -4.5t-3.5 -3.5t-4 -2t-5 -0.5h-256zM624 736q-7 0 -11.5 4.5t-4.5 11.5q0 2 0.5 4t1.5 4t2.5 3.5t3.5 2.5t4 1.5t4 0.5h256q4 0 8 -2t6 -6
t2 -8q0 -3 -1 -5.5t-2.5 -4.5t-3.5 -3.5t-4 -2t-5 -0.5h-256zM528 96q4 0 8 -2t6 -6t2 -8q0 -7 -4.5 -11.5t-11.5 -4.5h-256q-7 0 -11.5 4.5t-4.5 11t4.5 11.5t11.5 5h256zM528 192q7 0 11.5 -5t4.5 -11.5t-4.5 -11t-11.5 -4.5h-256q-7 0 -11.5 4.5t-4.5 11t4.5 11.5t11.5 5
h256zM528 288q3 0 5 -1t4 -2.5t3.5 -3.5t2.5 -4.5t1 -4.5q0 -3 -1.5 -6t-3.5 -5.5t-5 -3.5t-6 -1h-256q-7 0 -11.5 4.5t-4.5 11t4.5 11.5t11.5 5h256zM880 96q7 0 11.5 -5t4.5 -11.5t-4.5 -11t-11.5 -4.5h-256q-7 0 -11.5 4.5t-4.5 11.5q0 4 2 8t6 6t8 2h256zM880 192
q3 0 6 -1.5t5 -3.5t3.5 -5t1.5 -6q0 -7 -4.5 -11.5t-11.5 -4.5h-256q-7 0 -11.5 4.5t-4.5 11t4.5 11.5t11.5 5h256zM880 288q7 0 11.5 -5t4.5 -11q0 -3 -1.5 -6t-3.5 -5.5t-5 -3.5t-6 -1h-256q-3 0 -5.5 0.5t-4 2t-3 3.5t-2.5 4.5t-1 5.5q0 6 4.5 11t11.5 5h256zM880 480
q4 0 8 -2t6 -6t2 -8q0 -7 -4.5 -11.5t-11.5 -4.5h-608q-7 0 -11.5 4.5t-4.5 11t4.5 11.5t11.5 5h608zM880 384q7 0 11.5 -5t4.5 -11.5t-4.5 -11t-11.5 -4.5h-608q-7 0 -11.5 4.5t-4.5 11t4.5 11.5t11.5 5h608zM288 544h224q13 0 22.5 9.5t9.5 22.5v224q0 13 -9.5 22.5
t-22.5 9.5h-224q-13 0 -22.5 -9.5t-9.5 -22.5v-224q0 -13 9.5 -22.5t22.5 -9.5zM320 768h160v-160h-160v160z" />
    <glyph glyph-name="uniE610" unicode="&#xe610;" 
d="M896 800h-768q-53 0 -90.5 -37.5t-37.5 -90.5v-416q0 -53 37.5 -90.5t90.5 -37.5h768q53 0 90.5 37.5t37.5 90.5v416q0 53 -37.5 90.5t-90.5 37.5zM64 632l224 -168l-224 -168v336zM960 256q0 -26 -19 -45t-45 -19h-768q-26 0 -45 19t-19 45l251 188l139 -105
q13 -9 28 -14t30 -5q32 0 58 19l139 105zM960 296l-224 168l224 168v-336zM550 365q-4 -3 -8.5 -5.5t-9.5 -4t-10 -2.5t-10 -1q-10 0 -20 3t-18 10l-410 307q0 26 19 45t45 19h768q26 0 45 -19t19 -45z" />
    <glyph glyph-name="uniE611" unicode="&#xe611;" 
d="M933 625q-11 3 -28 5t-47 3.5t-51 2t-70 1.5t-75 2q8 37 8 105q0 84 -50.5 150t-107.5 66q-39 0 -67 -28t-29 -67q0 -22 -3 -44t-11.5 -49.5t-22 -51.5t-37 -47.5t-54.5 -39.5q-4 -2 -11.5 -6t-14 -7t-8.5 -4l2 -2q-13 12 -30 19t-34 7h-96q-40 0 -68 -28t-28 -68v-512
q0 -40 28 -68t68 -28h96q28 0 51 15t34 40h2t3.5 -1t4 -1h1.5q36 -9 130 -31q96 -22 191 -22h175q80 0 114 62q8 16 14 34q8 27 1 56q34 24 53 83q15 49 0 87q15 15 26 37t16 52q7 40 -12 76q13 14 19.5 32.5t7.5 36.5l1 7v16q0 21 -9 42.5t-30.5 40t-51.5 27.5zM224 32
q0 -13 -9.5 -22.5t-22.5 -9.5h-96q-13 0 -22.5 9.5t-9.5 22.5v512q0 13 9.5 22.5t22.5 9.5h96q13 0 22.5 -9.5t9.5 -22.5v-512zM959 495q-2 -47 -63 -47h-64q-7 0 -11.5 -4.5t-4.5 -11.5t4.5 -11.5t11.5 -4.5h62q32 0 43 -19.5t8 -39.5q-2 -12 -5 -21.5t-10 -21.5t-21 -19
t-33 -7h-76q-7 0 -11.5 -4.5t-4.5 -11.5t4.5 -11.5t11.5 -4.5h63q25 0 36.5 -11.5t9.5 -26t-4 -28.5q-1 -1 -2 -4q-5 -15 -8.5 -22.5t-12 -17.5t-24 -14t-38.5 -4h-52q-5 0 -8.5 -2t-5.5 -6t-2 -8q0 -7 4.5 -11.5t11.5 -4.5h50q23 0 30 -16t3 -29q-1 -3 -2 -5.5t-1.5 -4.5
t-1.5 -4t-1.5 -3.5l-1 -3t-1 -2l-0.5 -0.5q-15 -28 -58 -28h-175q-88 0 -177 20q-126 29 -149 36q-3 0 -7.5 1.5t-12 9t-7.5 17.5v442q0 26 25 33q1 1 3 1q3 1 4 2q52 21 91 56.5t60 77t30.5 83t10.5 85.5q0 12 9 22t23 10q10 0 22.5 -7.5t25 -22t23 -32.5t17 -42t6.5 -48
q0 -40 -2.5 -62t-7.5 -42.5t-20 -63.5q152 0 226.5 -2t87.5 -3.5t32 -6.5q8 -2 14.5 -6t10.5 -9t7 -9.5t4 -9.5t1.5 -8.5t0.5 -6.5q0 -1 -1 -20zM144 128q-20 0 -34 -14t-14 -34t14 -34t34 -14t34 14t14 34t-14 34t-34 14zM144 64q-7 0 -11.5 4.5t-4.5 11.5t4.5 11.5
t11.5 4.5t11.5 -4.5t4.5 -11.5t-4.5 -11.5t-11.5 -4.5z" />
    <glyph glyph-name="uniE612" unicode="&#xe612;" 
d="M864 960h-704q-53 0 -90.5 -37.5t-37.5 -90.5v-768q0 -53 37.5 -90.5t90.5 -37.5h704q53 0 90.5 37.5t37.5 90.5v768q0 53 -37.5 90.5t-90.5 37.5zM928 64q0 -26 -19 -45t-45 -19h-704q-26 0 -45 19t-19 45v768q0 26 19 45t45 19h704q26 0 45 -19t19 -45v-768zM832 832
h-640q-13 0 -22.5 -9.5t-9.5 -22.5v-576q0 -13 9.5 -22.5t22.5 -9.5h640q13 0 22.5 9.5t9.5 22.5v576q0 13 -9.5 22.5t-22.5 9.5zM832 800v-444l-104 113q-5 5 -11 8t-13 3q-15 0 -24 -11l-83 -94l-253 286q-10 11 -24 11t-24 -11l-104 -120v259h640zM192 493l128 147
l277 -314l88 -102h-493v269zM728 224l-110 127l86 97l128 -140v-84h-104zM640 544q40 0 68 28t28 68t-28 68t-68 28t-68 -28t-28 -68t28 -68t68 -28zM640 704q26 0 45 -19t19 -45t-19 -45t-45 -19t-45 19t-19 45t19 45t45 19z" />
    <glyph glyph-name="uniE613" unicode="&#xe613;" 
d="M1005 717l-192 192q-18 19 -45 19h-672q-40 0 -68 -28t-28 -68v-768q0 -40 28 -68t68 -28h832q40 0 68 28t28 68v608q0 27 -19 45zM960 64q0 -13 -9.5 -22.5t-22.5 -9.5h-832q-13 0 -22.5 9.5t-9.5 22.5v768q0 13 9.5 22.5t22.5 9.5h640v-128q0 -11 2.5 -22t7 -20.5
t11.5 -17.5t15 -14.5t17.5 -11.5t20.5 -7.5t22 -2.5h128v-576zM864 672h-32q-27 0 -45.5 19t-18.5 45v128l192 -192h-96zM496 704q-7 0 -11.5 4.5t-4.5 11.5t4.5 11.5t11.5 4.5h160q7 0 11.5 -4.5t4.5 -11.5t-4.5 -11.5t-11.5 -4.5h-160zM496 608q-7 0 -11.5 4.5t-4.5 11.5
t4.5 11.5t11.5 4.5h160q7 0 11.5 -4.5t4.5 -11.5t-4.5 -11.5t-11.5 -4.5h-160zM480 528q0 7 4.5 11.5t11.5 4.5h384q7 0 11.5 -4.5t4.5 -11.5t-4.5 -11.5t-11.5 -4.5h-384q-7 0 -11.5 4.5t-4.5 11.5zM880 352q7 0 11.5 -4.5t4.5 -11.5t-4.5 -11.5t-11.5 -4.5h-736
q-7 0 -11.5 4.5t-4.5 11.5t4.5 11.5t11.5 4.5h736zM880 256q7 0 11.5 -4.5t4.5 -11.5t-4.5 -11.5t-11.5 -4.5h-736q-7 0 -11.5 4.5t-4.5 11.5t4.5 11.5t11.5 4.5h736zM880 160q7 0 11.5 -4.5t4.5 -11.5t-4.5 -11.5t-11.5 -4.5h-736q-7 0 -11.5 4.5t-4.5 11.5t4.5 11.5
t11.5 4.5h736zM880 448q7 0 11.5 -4.5t4.5 -11.5t-4.5 -11.5t-11.5 -4.5h-736q-7 0 -11.5 4.5t-4.5 11.5t4.5 11.5t11.5 4.5h736zM160 512h224q13 0 22.5 9.5t9.5 22.5v192q0 13 -9.5 22.5t-22.5 9.5h-224q-13 0 -22.5 -9.5t-9.5 -22.5v-192q0 -13 9.5 -22.5t22.5 -9.5z
M192 704h160v-128h-160v128z" />
    <glyph glyph-name="uniE614" unicode="&#xe614;" 
d="M944 288h-86q-1 5 -2.5 11t-2.5 12l153 76q12 6 16.5 18.5t-1.5 24.5t-18.5 16t-24.5 -1l-147 -74q-42 92 -128.5 148.5t-190.5 56.5q-128 0 -225.5 -82t-120.5 -206h-86q-33 0 -56.5 -23.5t-23.5 -56.5q0 -12 4 -23t12 -20l112 -125v-24q0 -7 1.5 -14t3.5 -13.5
t5.5 -12.5t8 -11.5t10 -10t11.5 -8t12.5 -5.5t13.5 -3.5t14 -1.5h608q33 0 56.5 23.5t23.5 56.5v24l112 125q16 19 16 43q0 33 -23.5 56.5t-56.5 23.5zM826 288h-18l16 8q0 -1 0.5 -4t1.5 -4zM512 544q95 0 173.5 -51.5t117.5 -135.5l-29 -14q-34 76 -105 122.5t-157 46.5
q-67 0 -126.5 -29t-99.5 -80t-55 -115h-33q23 110 111 183t203 73zM658 288q-18 43 -58 69.5t-88 26.5t-88 -26.5t-58 -69.5h-35q20 57 69.5 92.5t111.5 35.5q29 0 56.5 -8.5t50 -24t40.5 -37t29 -46.5zM512 320q-42 0 -71 -32h-39q17 29 46 46.5t64 17.5q23 0 44.5 -8
t38 -22.5t27.5 -33.5h-39q-29 32 -71 32zM512 448q-50 0 -94 -20.5t-75.5 -57t-45.5 -82.5h-33q22 84 91 138t157 54q77 0 140 -42t93 -109l-28 -15q-18 40 -48.5 70t-71 47t-85.5 17zM832 64v-48q0 -7 -4.5 -11.5t-11.5 -4.5h-608q-7 0 -11.5 4.5t-4.5 11.5v48l-128 144
q0 7 4.5 11.5t11.5 4.5h864q7 0 11.5 -4.5t4.5 -11.5zM255 585v1v1q-5 11 -6.5 24t-0.5 23t5 24t7 21.5t10 21.5q6 17 9.5 26t7 22t2.5 24t-6 21v1q-1 1 -1 2.5v2.5q0 7 4.5 11.5t11.5 4.5q10 0 14 -10q5 -12 6.5 -25t1 -23t-4.5 -24t-7 -22.5t-9 -22.5q-7 -15 -10.5 -25
t-6.5 -22.5t-2 -23.5t5 -21v-1q1 -2 1 -4q0 -4 -2 -8t-6 -6t-8 -2q-10 0 -14 9h-1zM645 590l-1 1q-5 14 -6.5 29t2.5 31.5t8 26.5t11 28l10.5 25.5t6.5 22t2.5 24t-5.5 21.5v0v1l-1 5q0 6 4.5 11t10.5 5q11 0 15 -10q5 -12 6.5 -25t1 -23.5t-4.5 -24t-7.5 -22t-9.5 -22.5
q-8 -20 -12 -32.5t-6 -31t5 -29.5v0q1 -3 1 -4q0 -7 -5 -11.5t-12 -4.5q-9 0 -14 8v0v1zM481 729q-1 0 -1 0.5v1.5q-6 14 -7 28.5t3 31t7.5 27t11.5 27.5q5 14 8 20.5t6.5 18t4 19.5t-0.5 17.5t-5 17.5v1q-1 3 -1 5q0 5 2 8.5t6 5.5t8 2q11 0 15 -10q6 -15 7.5 -30t-2.5 -31
t-8 -27t-11 -29q-6 -15 -9.5 -25t-6.5 -22.5t-2.5 -23.5t5.5 -21v-1v-4q0 -7 -4.5 -11.5t-11.5 -4.5q-3 0 -5.5 1t-5 3t-3.5 5v0z" />
    <glyph glyph-name="uniE615" unicode="&#xe615;" 
d="M1000 754l-160 128q-18 14 -40 14h-576q-4 0 -7.5 -0.5l-7 -1t-7 -2t-6.5 -3t-6 -3.5l-6 -4l-160 -128q-16 -13 -21.5 -32t0.5 -38l64 -192q3 -10 9 -18t14 -13.5t17 -9.5q11 -3 21 -3q17 0 32 9v-393q0 -26 19 -45t45 -19h576q26 0 45 19t19 45v393q15 -9 32 -9
q11 0 21 3q30 11 40 41l64 192q6 19 0.5 38t-21.5 32zM632 832q-13 -28 -46 -46t-74 -18t-74 18t-46 46h240zM896 512l-96 64v-512h-576v512l-96 -64l-64 192l160 128h134q13 -42 56 -69t98 -27t98 27t56 69h134l160 -128z" />
    <glyph glyph-name="uniE616" unicode="&#xe616;" 
d="M704 672q0 -17 -4 -35.5t-10 -33.5t-13 -29t-14 -24.5t-12.5 -19t-9.5 -12.5l-3 -4q0 33 -7 66t-18 60.5t-24.5 53t-27 44.5t-24.5 33t-18 22l-7 7q0 -11 -2 -29t-18.5 -68.5t-44.5 -92.5q-18 62 -51 121t-66.5 99t-66 70.5t-51.5 45t-20 14.5q22 -80 30.5 -148.5
t3.5 -133t-11.5 -102.5t-20.5 -104l-9 -39t-7.5 -37t-7 -41t-5.5 -39t-4 -44t-1 -45q0 -56 23 -108.5t64 -93t102 -65t131 -24.5q83 0 145.5 12.5t100.5 31.5t64.5 50.5t38.5 60t23 69.5q30 120 -10.5 255t-137.5 257zM790 175q-9 -33 -15 -50.5t-26.5 -45.5t-50.5 -42
t-85.5 -25.5t-132.5 -11.5q-47 0 -88 13t-71.5 35t-52.5 51t-33 62t-11 66q0 86 32 231q6 27 9 41t8.5 40.5t8 44t5.5 43.5t4 47.5t0.5 48.5t-2.5 54q44 -61 77.5 -140.5t45.5 -128.5l11 -49q92 129 117 189q9 -19 17.5 -64.5t13.5 -107.5t5 -124q10 8 25.5 22.5t55 60.5
t68.5 92q99 -178 68 -334q-1 -10 -3 -18zM718 423l6 -34q6 -38 6 -77t-6.5 -77t-18.5 -69q-2 -5 -6 -7.5t-9 -2.5q-3 0 -6 1q-6 3 -8.5 9t-0.5 12q14 35 19.5 80.5t2.5 90.5q-61 -67 -159 -114l-17 -8l-5 17q-24 68 -29 115q-7 -12 -13 -20.5t-13 -19.5t-15.5 -23t-17.5 -25
l-17 -22l-11 25q-45 100 -65 152q-27 -86 -27 -222q0 -7 -4.5 -11.5t-11.5 -4.5t-11.5 4.5t-4.5 11.5q0 70 6.5 125t13.5 80t21 65l17 49l15 -44q21 -57 69 -166q14 19 24 35t26 41l49 76v-55q0 -42 6 -73.5t17 -64.5q40 20 70.5 42.5t44 36.5t36.5 40z" />
    <glyph glyph-name="uniE617" unicode="&#xe617;" 
d="M940 812q84 -85 84 -204t-84 -204l-351 -351q-10 -9 -23 -9t-22.5 9.5t-9.5 22.5t9 23l347 346q65 66 65 158.5t-65.5 158t-158 65.5t-158.5 -65l-462 -457q-47 -47 -47 -113t47 -113t113 -47t113 47l467 461q8 8 13.5 17.5t9 19.5t5 20.5t0 21t-5 20.5t-9 19.5
t-13.5 17.5q-28 28 -68 28t-68 -28l-351 -351q-9 -10 -22.5 -10t-23 9.5t-9.5 23t10 22.5l351 351q47 47 113 47t113 -47q31 -31 42 -72t0 -82t-42 -72l-467 -462q-65 -65 -158 -65t-158.5 65.5t-65.5 158.5t65 158l467 462q87 86 209 84q117 -3 199 -84z" />
    <glyph glyph-name="uniE618" unicode="&#xe618;" 
d="M1005 602l-96 128q-3 3 -6 6.5t-7 6.5v153q0 26 -19 45t-45 19h-640q-27 0 -45.5 -18.5t-18.5 -45.5v-153q-4 -3 -7 -6.5t-6 -6.5l-96 -128q-19 -26 -19 -58v-32q0 -40 28 -68t68 -28v-416q0 -26 19 -45t45 -19h704q26 0 45 19t19 45v416q40 0 68 28t28 68v32
q0 32 -19 58zM832 896v-128h-640v128h640zM326 480h-134l128 224h70zM423 704h73v-224h-137zM528 704h73l64 -224h-137v224zM634 704h70l128 -224h-134zM64 512v32q0 11 6 19l96 128q10 13 26 13h91l-128 -224h-59q-13 0 -22.5 9.5t-9.5 22.5zM640 0h-240v320h240v-320z
M864 0h-192v320q0 13 -9.5 22.5t-22.5 9.5h-240q-13 0 -22.5 -9.5t-9.5 -22.5v-320h-208v416h704v-416zM960 512q0 -13 -9.5 -22.5t-22.5 -9.5h-59l-128 224h91q16 0 26 -13l96 -128q6 -8 6 -19v-32z" />
    <glyph glyph-name="uniE619" unicode="&#xe619;" 
d="M939 864h-139v64q0 13 -9.5 22.5t-22.5 9.5t-22.5 -9.5t-9.5 -22.5v-64h-192v64q0 13 -9.5 22.5t-22.5 9.5t-22.5 -9.5t-9.5 -22.5v-64h-192v64q0 13 -9.5 22.5t-22.5 9.5t-22.5 -9.5t-9.5 -22.5v-64h-139q-17 0 -33 -7t-27 -18t-18 -27t-7 -33v-758q0 -35 25 -60t60 -25
h854q35 0 60 25t25 60v758q0 35 -25 60t-60 25zM960 21q0 -8 -6.5 -14.5t-14.5 -6.5h-854q-8 0 -14.5 6.5t-6.5 14.5v758q0 5 3 10t8 8t10 3h139v-64q0 -7 2.5 -12.5t7 -10t10 -7t12.5 -2.5t12.5 2.5t10 7t7 10t2.5 12.5v64h192v-64q0 -13 9.5 -22.5t22.5 -9.5q7 0 12.5 2.5
t10 7t7 10t2.5 12.5v64h192v-64q0 -13 9.5 -22.5t22.5 -9.5t22.5 9.5t9.5 22.5v64h139q5 0 10 -3t8 -8t3 -10v-758zM224 576h128v-96h-128v96zM224 416h128v-96h-128v96zM224 256h128v-96h-128v96zM448 256h128v-96h-128v96zM448 416h128v-96h-128v96zM448 576h128v-96h-128
v96zM672 256h128v-96h-128v96zM672 416h128v-96h-128v96zM672 576h128v-96h-128v96z" />
    <glyph glyph-name="uniE61A" unicode="&#xe61a;" 
d="M512 320q0 27 18.5 45.5t45.5 18.5t45.5 -18.5t18.5 -45.5t-18.5 -45.5t-45.5 -18.5t-45.5 18.5t-18.5 45.5zM928 544v192v96q0 40 -28 68t-68 28h-656q-73 0 -124.5 -51.5t-51.5 -124.5v-640q0 -73 51.5 -124.5t124.5 -51.5h576q73 0 124.5 51.5t51.5 124.5v48
q47 35 71.5 87t24.5 105t-24.5 105t-71.5 87zM176 864h656q13 0 22.5 -9.5t9.5 -22.5v-198q-5 2 -10 3.5t-11 2t-11 0.5v160q0 13 -9.5 22.5t-22.5 9.5h-672q-13 0 -22.5 -9.5t-9.5 -22.5v-126q-7 7 -13 16t-10.5 19t-6.5 21t-2 22q0 46 33 79t79 33zM800 768h-672v32h672
v-32zM800 736v-32h-672v32h672zM800 672v-32h-624q-25 0 -48 11v21h672zM864 112q0 -46 -33 -79t-79 -33h-576q-46 0 -79 33t-33 79v504q15 -12 33 -21t38 -14t41 -5h656q13 0 22.5 -9.5t9.5 -22.5v-64h-288q-66 0 -113 -47t-47 -113t47 -113t113 -47h288v-48zM905 224h-329
q-40 0 -68 28t-28 68t28 68t68 28h288q15 0 28.5 7t22.5 19q2 2 3.5 4.5t2.5 5t2 4.5l1 1v1q18 -22 27 -49.5t9 -56.5q0 -76 -55 -128z" />
    <glyph glyph-name="uniE61B" unicode="&#xe61b;" 
d="M702.5 923q-77.5 31 -159.5 36t-158 -15.5t-143.5 -61t-120.5 -103.5t-84 -140.5t-36 -160t15.5 -158.5t61 -143t103.5 -120t140.5 -84t160 -36.5t158.5 15.5t143 61.5t120 103.5t84 140.5t36.5 159.5t-15.5 158t-61.5 143.5t-103.5 120.5t-140.5 84zM345.5 32
q-67.5 27 -122.5 73.5t-91 105.5t-54 125.5t-13.5 138.5t31.5 139.5t73.5 122.5t105.5 91t125.5 54t138.5 13.5t139.5 -31.5t122.5 -73.5t91 -105.5t54 -125.5t13.5 -138.5t-31.5 -139.5t-73.5 -122.5t-105.5 -91t-125.5 -54t-138.5 -13.5t-139.5 31.5zM536 507q-17 6 -33 4
t-30 -12.5t-20 -26.5q-6 -17 -4 -33.5t12.5 -30t26.5 -20.5q17 -6 33.5 -3.5t30 13t20.5 26.5q5 12 4.5 25t-5.5 24t-14 20t-21 14zM500 418q-12 5 -17 17t-0.5 24.5t17 17.5t24.5 1q8 -4 13.5 -10.5t6.5 -15t-2 -16.5q-9 -22 -32 -20q-6 1 -10 2zM583 626
q-73 30 -146.5 -1.5t-103 -105.5t2 -147t105.5 -102.5t147 2t102 104.5q19 52 12.5 100.5t-38.5 89.5t-81 60zM464.5 329q-49.5 20 -70 68.5t-1 98t68.5 70t98 1t70 -68.5t1 -98t-68.5 -70t-98 -1zM750 353q-19 -48 -55 -84t-81 -56h-1q-3 -2 -6.5 -2t-6 1t-5 3.5t-3.5 5.5
q-2 4 -1.5 8t3 7.5t6.5 5.5q86 36 120 123q3 6 9 8.5t12 0t8.5 -8.5t0.5 -12zM860 325.5q6 -2.5 8.5 -8.5t0.5 -12q-29 -72 -82.5 -126t-122.5 -83l-0.5 -0.5l-0.5 -0.5q-2 -1 -4 -1.5t-4 0t-4 1.5t-3.5 2t-3 2.5t-2.5 3.5q-1 5 -0.5 9t3 7.5t6.5 4.5q63 27 112 77t76 116
q2 6 8.5 8.5t12.5 0zM800 350q6 -3 9 -9t0 -12q-16 -40 -42 -74t-58 -59t-70 -42h-1q-3 -2 -6 -2t-6 1.5t-5.5 3.5t-3.5 5q-3 6 -0.5 12.5t9.5 8.5h-1q26 11 49 26.5t43 35.5t36 44t26 52q2 3 4 5t5 3.5t6 1.5t6 -1zM432.5 675q2.5 -6 0 -12.5t-8.5 -8.5q-40 -17 -71.5 -49
t-48.5 -74q-2 -6 -8 -8.5t-12.5 0t-9 8.5t-0.5 12h1q9 24 23.5 45.5t31.5 39t37.5 31.5t43.5 24v0q6 3 12.5 0.5t9 -8.5zM382 792q2 -4 1.5 -8t-3 -7.5t-6.5 -5.5q-64 -27 -113 -76.5t-76 -115.5q-1 -3 -3 -5.5t-5 -3.5t-6 -1t-6 1q-7 2 -9.5 8.5t0.5 12.5q29 72 82 126
t122 83v1h1q3 1 6 1t6 -1t5.5 -3.5t3.5 -5.5zM399 713q-26 -11 -49 -27t-42.5 -35.5t-35.5 -44t-27 -51.5q-3 -6 -9 -8.5t-12 -0.5t-8.5 8.5t-0.5 12.5q24 60 68.5 105t101.5 69l1 1q3 1 6.5 1t6 -1t5 -3t3.5 -5q3 -6 0.5 -12.5t-8.5 -8.5z" />
    <glyph glyph-name="uniE61C" unicode="&#xe61c;" 
d="M795 594q-10 14 -27 14h-32q-13 0 -22.5 -9.5t-9.5 -22.5v-192q0 -13 9.5 -22.5t22.5 -9.5h128q13 0 22.5 9.5t9.5 22.5v48q0 10 -5 18zM864 384h-128v192h32l96 -144v-48zM1008 469l-128 192q-14 20 -35 31.5t-45 11.5h-128v64q0 40 -28 68t-68 28h-480q-40 0 -68 -28
t-28 -68v-352q0 -40 28 -68t68 -28v-96q0 -40 28 -68t68 -28h37q5 -20 16.5 -38t27.5 -30.5t36.5 -20t42.5 -7.5q44 0 78.5 27t44.5 69h169q11 -42 45.5 -69t78.5 -27t78.5 27t44.5 69h37q40 0 68 28t28 68v192q0 14 -4 27.5t-12 25.5zM96 384q-13 0 -22.5 9.5t-9.5 22.5
v352q0 13 9.5 22.5t22.5 9.5h480q13 0 22.5 -9.5t9.5 -22.5v-352q0 -13 -9.5 -22.5t-22.5 -9.5h-480zM352.5 96q-26.5 0 -45.5 18.5t-19 45.5q0 17 8.5 32t23.5 23.5t32 8.5q27 0 45.5 -19t18.5 -45t-18.5 -45t-45 -19zM768 96q-27 0 -45.5 18.5t-18.5 45.5t18.5 45.5
t45.5 18.5q26 0 45 -19t19 -45t-19 -45t-45 -19zM960 224q0 -13 -9.5 -22.5t-22.5 -9.5h-37q-7 27 -24.5 49t-43.5 34.5t-55 12.5q-44 0 -78.5 -27t-44.5 -69h-170q-7 27 -24.5 49t-43.5 34.5t-55 12.5q-44 0 -78.5 -27t-44.5 -69h-37q-5 0 -10 1.5t-9 4.5t-7 7t-4.5 9
t-1.5 10v96h416q40 0 68 28t28 68v224h128q17 0 27 -14l128 -192q5 -8 5 -18v-192z" />
    <glyph glyph-name="uniE61D" unicode="&#xe61d;" 
d="M496 960q-205 0 -350.5 -145.5t-145.5 -350.5t145.5 -350.5t350.5 -145.5t350.5 145.5t145.5 350.5t-145.5 350.5t-350.5 145.5zM927 480h-192q-2 106 -36 201q31 13 61 30.5t58 39.5q103 -116 109 -271zM478 33q-81 67 -130 168q62 20 132 22v-190h-2zM514 895
q30 -25 56 -55.5t48 -66t39 -74.5q-70 -24 -145 -26v222h2zM567 890q65 -11 123.5 -41t105.5 -75q-52 -40 -110 -64q-43 104 -119 180zM480 895v-222q-75 2 -145 26q25 59 61.5 108.5t81.5 87.5h1h1zM305 710q-29 12 -56.5 28t-52.5 36q47 45 105.5 75t123.5 41
q-76 -76 -120 -180zM323 670q76 -27 157 -29v-161h-191q2 100 34 190zM480 448v-193q-11 0 -21.5 -1l-21 -2t-21 -2.5t-21 -3.5t-20.5 -4.5l-20 -5t-20 -5.5q-21 50 -33 104.5t-13 112.5h191zM425 38q-118 20 -209 98q24 17 49.5 30.5t52.5 23.5q6 -12 12.5 -24t13.5 -23.5
t14.5 -22.5l15 -22t16 -21t17.5 -19.5t18 -19.5zM512 33v190q70 -2 132 -22q-49 -101 -130 -168h-2zM674 190q27 -10 52.5 -23.5t49.5 -30.5q-91 -78 -209 -98q65 66 107 152zM657 231q-69 22 -145 24v193h191q-3 -115 -46 -217zM512 480v161q81 2 157 29q32 -90 34 -190
h-191zM174 751q57 -44 119 -70q-34 -95 -36 -201h-192q3 77 31 146t78 125zM65 448h192q3 -120 48 -228q-59 -23 -113 -62q-58 57 -91 131.5t-36 158.5zM800 158q-26 19 -54.5 34.5t-58.5 27.5q45 108 48 228h192q-3 -84 -36 -158.5t-91 -131.5z" />
    <glyph glyph-name="uniE61E" unicode="&#xe61e;" 
d="M480 640q0 13 9.5 22.5t22.5 9.5t22.5 -9.5t9.5 -22.5t-9.5 -22.5t-22.5 -9.5t-22.5 9.5t-9.5 22.5zM480 256q0 13 9.5 22.5t22.5 9.5t22.5 -9.5t9.5 -22.5t-9.5 -22.5t-22.5 -9.5t-22.5 9.5t-9.5 22.5zM288 448q0 13 9.5 22.5t22.5 9.5t22.5 -9.5t9.5 -22.5t-9.5 -22.5
t-22.5 -9.5t-22.5 9.5t-9.5 22.5zM672 448q0 13 9.5 22.5t22.5 9.5t22.5 -9.5t9.5 -22.5t-9.5 -22.5t-22.5 -9.5t-22.5 9.5t-9.5 22.5zM344 312q0 9 4.5 16.5t12 11.5t15.5 4q13 0 22.5 -9t9.5 -23q0 -8 -4 -15.5t-11.5 -12t-16.5 -4.5q-13 0 -22.5 9.5t-9.5 22.5zM344 584
q0 6 2.5 12t7 10.5t10.5 7t12 2.5q9 0 16.5 -4.5t11.5 -12t4 -15.5q0 -7 -2.5 -13t-6.5 -10t-10 -6.5t-13 -2.5q-8 0 -15.5 4t-12 11.5t-4.5 16.5zM616 312.5q0 13.5 9 22.5t22.5 9t23 -9t9.5 -22.5t-9.5 -23t-23 -9.5t-22.5 9.5t-9 23zM832 512q-1 0 -4 -1h-2q-8 41 -27 78
t-47 69l-46 250q-4 22 -22 37t-41 15h-256q-23 0 -40.5 -15t-22.5 -37l-44 -242q-42 -44 -65 -100t-23 -118q0 -121 84 -214l45 -246q3 -15 12 -27t22.5 -18.5t28.5 -6.5h256q23 0 41 15t22 37l46 246q60 67 77 151q1 0 3 -0.5t3 -0.5q9 0 17 2.5t15 6.5t13 10t10 13t6.5 15
t2.5 17q0 7 -1.5 14.5t-5 13.5t-7.5 12t-10 10t-12 7.5t-13.5 5t-14.5 1.5zM387 896h256l32 -172q-76 44 -159.5 44t-160.5 -44zM640 0h-256l-32 172q24 -14 49.5 -23.5t53.5 -15t57 -5.5q84 0 160 44zM512 192q-106 0 -181 75t-75 181t75 181t181 75t181 -75t75 -181
t-75 -181t-181 -75zM670 607q2 -2 3 -4.5t0.5 -5t-2.5 -4.5l-78 -97l-59 -71q-9 -9 -22 -9q-4 0 -8.5 1t-8 3t-6.5 5q-9 10 -9 23t9 23l167 137q7 5 14 -1z" />
    <glyph glyph-name="uniE61F" unicode="&#xe61f;" 
d="M1009 955q-4 2 -8 3.5t-9 1.5q-10 0 -18 -5l-960 -640q-16 -11 -14 -30.5t20 -26.5l250 -100l118 -206q9 -16 28 -16q18 0 27 16l67 110l310 -124q2 0 4 -1t4 -1h4q3 0 5.5 0.5t5 1.5t5.5 2q13 8 16 23l160 960q2 20 -15 32zM100 295l742 495l-539 -578q-1 1 -4 3t-5 3z
M326 190l606 649l-517 -805zM807 13l-273 109q-5 2 -10 2.5t-10 1.5l421 652z" />
    <glyph glyph-name="uniE620" unicode="&#xe620;" 
d="M256 767v97q0 40 -28 68t-68 28t-68 -28t-28 -68v-97q-30 -22 -47 -55.5t-17 -71.5t17 -71.5t47 -55.5v-481q0 -40 28 -68t68 -28t68 28t28 68v481q15 11 26.5 25t20 30t13 34.5t4.5 37.5q0 38 -17 71.5t-47 55.5zM128 864q0 13 9.5 22.5t22.5 9.5t22.5 -9.5t9.5 -22.5
v-67q-16 3 -32 3t-32 -3v67zM192 32q0 -13 -9.5 -22.5t-22.5 -9.5t-22.5 9.5t-9.5 22.5v451q16 -3 32 -3t32 3v-451zM252 613q-2 -4 -2 -5q-5 -14 -12 -23v-1q-9 -12 -20 -20q-12 -9 -26 -14q-8 -3 -16 -4.5t-16 -1.5q-16 0 -32 6q-14 5 -26 14q-3 2 -5.5 4.5l-5 5l-5 5
t-4.5 5.5v1q-7 9 -12 23q-1 1 -1 4l-1 1q-2 7 -3 13.5t-1 13.5q0 5 0.5 9.5t1.5 8.5t2 9q2 4 2 5q5 14 12 24v0q9 12 20 20q6 5 12.5 8.5t13.5 5.5q5 2 10 3.5t10.5 2t11.5 0.5q15 0 32 -6q14 -5 26 -14q11 -8 20 -20v0q2 -3 3 -5t2.5 -4.5t2.5 -5t2 -4.5t2 -5t2 -5
q4 -15 4 -27q0 -7 -1 -13.5t-3 -13.5zM960 767v97q0 40 -28 68t-68 28t-68 -28t-28 -68v-97q-30 -22 -47 -55.5t-17 -71.5q0 -26 8 -50t22 -43.5t34 -33.5v-481q0 -40 28 -68t68 -28t68 28t28 68v481q30 22 47 55.5t17 71.5q0 26 -8 50t-22 43.5t-34 33.5zM832 864
q0 13 9.5 22.5t22.5 9.5t22.5 -9.5t9.5 -22.5v-67q-16 3 -32 3t-32 -3v67zM896 32q0 -13 -9.5 -22.5t-22.5 -9.5t-22.5 9.5t-9.5 22.5v451q16 -3 32 -3t32 3v-451zM956 613q-2 -4 -2 -5q-5 -14 -12 -23v-1q-5 -6 -10 -11t-10 -9q-12 -9 -26 -14q-5 -2 -10 -3.5t-11 -2
t-11 -0.5q-16 0 -32 6q-14 5 -25.5 14t-20.5 20v1q-4 5 -7 11t-5 12q0 1 -2 5q-4 15 -4 27q0 7 1 13.5t3 13.5q2 4 2 5q2 6 5 12t7 12v0q9 12 20 20q12 9 26 14q8 3 16 4.5t16 1.5q15 0 32 -6q14 -5 26 -14q4 -3 7.5 -6t6.5 -6.5t6 -7.5v0q7 -10 12 -24q0 -1 2 -5
q4 -15 4 -27q0 -13 -4 -27zM608 383v481q0 40 -28 68t-68 28t-68 -28t-28 -68v-481q-30 -22 -47 -55.5t-17 -71.5q0 -19 4.5 -37.5t13 -34.5t20 -30t26.5 -25v-97q0 -26 13 -48t35 -35t48 -13q40 0 68 28t28 68v97q30 22 47 55.5t17 71.5t-17 71.5t-47 55.5zM480 864
q0 13 9.5 22.5t22.5 9.5t22.5 -9.5t9.5 -22.5v-451q-16 3 -32 3q-8 0 -16 -1l-16 -2v451zM544 32q0 -13 -9.5 -22.5t-22.5 -9.5t-22.5 9.5t-9.5 22.5v67q16 -3 32 -3q8 0 16 1l16 2v-67zM604 229l-1 -1q0 -3 -1 -4q-5 -14 -12 -23v-1q-5 -6 -10 -11t-10 -9q-12 -9 -26 -14
q-4 -1 -8 -2.5t-8 -2l-8 -1t-8 -0.5q-16 0 -32 6q-14 5 -25.5 14t-20.5 20v1q-7 9 -12 23q-1 1 -1 4l-1 1q-4 15 -4 27t4 27q2 4 2 5q5 14 12 24v0q9 12 20 20q12 9 26 14l6 2t6.5 1.5t6.5 1t6.5 1t6.5 0.5q15 0 32 -6q14 -5 26 -14q5 -4 10 -9t10 -11v0q7 -10 12 -24
q1 -1 1 -4l1 -1q0 -3 1 -5.5t1.5 -5t1 -5.5t0.5 -5.5v-5.5q0 -7 -1 -13.5t-3 -13.5z" />
    <glyph glyph-name="uniE621" unicode="&#xe621;" 
d="M1005 621l-320 320q-25 26 -60 17q-18 -4 -30 -17q-6 -5 -10 -12t-6 -14q-11 -35 -30 -66t-47 -59q-18 -18 -38.5 -34.5t-47 -33.5t-44.5 -28t-52 -31q-48 -28 -75 -44.5t-66 -45t-68 -56.5q-39 -40 -66 -84t-42 -94q-12 -37 16 -64l320 -320q25 -26 60 -17q18 4 30 17
q11 11 16 26q22 70 77 125q14 14 32 28.5t33 25.5t38.5 25.5t37.5 23t41 24.5q21 12 32 18t30.5 18t31.5 20t29.5 20t30.5 22t27.5 23t27.5 25q26 27 46.5 55t36 58.5t25.5 64.5q5 17 1 34.5t-17 29.5zM384 0l-320 320q18 60 55.5 109t83 83t97.5 65l104 62t97.5 65t83 83
t55.5 109l102 -102l116 -116l102 -102q-18 -60 -55.5 -109t-83 -83t-97.5 -65l-104 -62t-97.5 -65t-83 -83t-55.5 -109zM626 483q-8 7 -16 11.5t-16 6.5q-16 4 -31 3q-16 -1 -32 -7q-19 -7 -33 -14q-4 5 -8 9.5t-8.5 10t-9 10t-8.5 9t-8.5 9.5t-8.5 9q11 11 22 11
q6 0 11 -0.5t10 -1.5q11 -3 19 -4q8 -2 15 3q7 7 8 16q0 9 -8 18q-3 4 -7 7t-8.5 5t-8.5 3q-15 2 -30 -1q-8 -2 -15 -5t-14 -7q-3 -2 -6.5 -4t-6 -4l-5 -4t-4.5 -4l-2 2l-2 2l-2 2q-5 3 -9 3q-5 0 -9 -4q-1 -2 -2 -4.5t0 -4.5q0 -5 4 -8l1 -2l5 -4q-4 -4 -8 -9.5t-7 -11
t-5 -11.5q-4 -8 -6.5 -17t-3.5 -17t0 -16t3 -15q6 -14 19 -25q22 -19 54 -17t66 20q17 -19 30.5 -34.5t26.5 -28.5q-12 -10 -22 -12q-9 -2 -16.5 0t-13.5 7q-3 2 -6.5 4t-6.5 3q-6 3 -12 3q-3 0 -5 -0.5t-4.5 -2t-5.5 -3.5q-2 -2 -3 -3.5t-2 -3.5t-1.5 -4.5t-0.5 -4.5
q0 -9 8 -18t21 -15q13 -7 29 -8q8 0 16 1t17 5q9 3 18 9t17 14q8 -7 17 -15q4 -3 9 -3q2 0 4.5 1t4.5 3q3 5 2.5 10t-3.5 8q-9 7 -17 14q14 17 23 36q1 4 2.5 7.5l3 7t2 7t1.5 7t1 6.5q2 17 -4 31q-6 13 -19 24zM447 461.5q-7 -0.5 -13 2t-11 7.5q-4 4 -6 10t-1 13q0 8 4 15
q4 8 10 15q21 -20 49 -52q-9 -5 -17 -7.5t-15 -3zM598 397q-2 -4 -4.5 -7.5t-5.5 -6.5q-22 23 -54 59q9 4 15 6q4 2 7.5 3t7.5 2q8 1 16 -1q4 -1 7.5 -3t7.5 -6q7 -6 8.5 -13.5t0 -16t-5.5 -16.5zM471 250q5 4 11 4t10 -5q12 -11 0 -23l-1 -1q-16 -12 -29 -23t-26 -24
q-24 -24 -44 -51l-20 -28q-1 -1 -2 -3q-12 -11 -23 0q-9 9 -2 20l22 30q10 14 21.5 28t24.5 27q23 23 58 49zM588 713q25 25 44 51l21 29q1 2 3 4q11 11 22 0t1 -22l-22 -30q-20 -28 -46 -55q-24 -23 -58 -49q-5 -5 -11.5 -4.5t-10.5 4.5q-12 12 0 23l3 3q16 12 29 23t25 23
z" />
    <glyph glyph-name="uniE622" unicode="&#xe622;" 
d="M512 960q-83 0 -161 -13t-143.5 -37.5t-104.5 -65.5t-39 -92v-608q0 -51 39 -92t104.5 -65.5t143.5 -37.5t161 -13t161 13t143.5 37.5t104.5 65.5t39 92v608q0 51 -39 92t-104.5 65.5t-143.5 37.5t-161 13zM896 144q0 -60 -112.5 -102t-271.5 -42t-271.5 42t-112.5 102
v120q48 -50 154 -77t230 -27t230 27t154 77v-120zM896 336v-0.5v-0.5q0 -17 -10 -33t-29 -30t-45.5 -26.5t-59.5 -22t-71 -16.5t-81 -11t-88 -4q-52 0 -102 5t-92 14.5t-77.5 22.5t-60 28.5t-38.5 34.5t-14 38v1v0v120q48 -50 154 -77t230 -27q81 0 155 11.5t135.5 35.5
t93.5 57v-120zM896 528v-0.5v-0.5q0 -39 -51.5 -72t-140 -52t-192.5 -19t-192.5 19t-140 52t-51.5 72v1v0v110q60 -46 164 -70t220 -24t220 24t164 70v-110zM512 608q-159 0 -271.5 42t-112.5 102t112.5 102t271.5 42t271.5 -42t112.5 -102t-112.5 -102t-271.5 -42zM768 128
q0 13 9.5 22.5t22.5 9.5t22.5 -9.5t9.5 -22.5t-9.5 -22.5t-22.5 -9.5t-22.5 9.5t-9.5 22.5zM768 320q0 13 9.5 22.5t22.5 9.5t22.5 -9.5t9.5 -22.5t-9.5 -22.5t-22.5 -9.5t-22.5 9.5t-9.5 22.5zM768 512q0 13 9.5 22.5t22.5 9.5t22.5 -9.5t9.5 -22.5t-9.5 -22.5t-22.5 -9.5
t-22.5 9.5t-9.5 22.5z" />
    <glyph glyph-name="uniE623" unicode="&#xe623;" 
d="M1001 945q-18 15 -41 15q-6 0 -11 -1l-544 -96q-11 -2 -21 -8t-17 -14t-11 -19t-4 -22v-549q-25 18 -56 27.5t-65 9.5q-41 0 -81 -13q-46 -16 -81 -45t-53 -67q-29 -60 -7 -120q12 -32 38 -56.5t61.5 -37.5t77 -13t80.5 13q31 10 56.5 26.5t45.5 38.5t32 47q15 31 15 67
h1v512h5.5t5.5 1l533 94v-388q-52 37 -121 37q-41 0 -81 -13q-31 -10 -56.5 -26.5t-45.5 -38.5t-32 -47q-29 -60 -7 -120q7 -19 19.5 -36t29.5 -30t37 -22t43 -14t47 -5q14 0 27.5 1.5t27 4.5t26.5 7q46 15 81 44.5t53 67.5q15 31 15 67h1v672q0 30 -23 49zM246 10
q-57 -19 -109 -3t-68 58.5t13.5 86t87 62.5t109.5 2.5t68 -58.5q9 -29 0 -57.5t-36 -53t-65 -37.5zM853 106q-58 -19 -109.5 -3t-67.5 58.5t13.5 86t87 62.5t109.5 2.5t68 -58.5q20 -53 -29 -103q-29 -30 -72 -45zM959 800l-544 -96v96l544 96v-96z" />
    <glyph glyph-name="uniE624" unicode="&#xe624;" 
d="M800 960q-93 0 -154 -115l-1 1q-20 -40 -45 -72t-53 -54.5t-59.5 -35t-64.5 -12.5h-295q-54 0 -91 -46.5t-37 -113.5t37 -113.5t91 -46.5q26 0 45 -19t19 -45v-288q0 -27 18.5 -45.5t45.5 -18.5h128q26 0 45 18.5t19 45.5v32q0 18 -16 37.5t-16 26.5v224v1v1q1 3 1.5 6.5
t2.5 6.5l2 2q2 3 4.5 5.5t5.5 4.5v0q2 1 6 2l3 1q30 -3 59 -16.5t54.5 -36t48.5 -52.5t42 -67h1q29 -54 67.5 -84t86.5 -30q53 0 96.5 38.5t71 102.5t42 143t14.5 164q0 115 -24.5 215t-77 166.5t-122.5 66.5zM640 512q0 47 5 96h91q26 0 45 -28t19 -68t-18.5 -68t-45.5 -28
h-91q-5 49 -5 96zM64 512q0 40 19 68t45 28h224q-32 -38 -32 -96t32 -96h-224q-27 0 -45.5 28t-18.5 68zM384 0h-128v288q0 34 -17 64h22h96q-5 -16 -5 -32v-224q0 -9 2 -17.5t4.5 -14.5t7 -13t7 -10t6.5 -9q1 0 2.5 -2t2.5 -3v-27zM423 416h-7q-27 0 -45.5 28t-18.5 68
t19 68t45 28h7q88 0 167 65q-5 -26 -8 -52.5t-4.5 -54t-1.5 -54.5q0 -41 3.5 -81.5t10.5 -79.5q-79 65 -167 65zM800 128q-19 0 -37.5 10.5t-34.5 30.5t-30 47.5t-25 61.5t-18 74h81q54 0 91 46.5t37 113.5t-37 113.5t-91 46.5h-81q19 101 58 162.5t87 61.5q66 0 113 -112.5
t47 -271.5t-47 -271.5t-113 -112.5z" />
    <glyph glyph-name="uniE625" unicode="&#xe625;" 
d="M1024 704q0 22 -9.5 41.5t-26.5 33.5t-38 19l-417 96q-10 2 -21 2t-22 -2l-416 -96q-32 -8 -53 -34t-21 -60t21 -60t53 -34l86 -19v-271q0 -70 86 -115t266 -45t266 45t86 115v271l86 19q32 8 53 34t21 60zM800 320q0 -19 -30.5 -40.5t-99.5 -38.5t-158 -17t-158 17
t-99.5 38.5t-30.5 40.5v256l267 -62q10 -2 21 -2t22 2l266 62v-256zM519 577q-4 -1 -7 -1h-3.5t-3.5 1l-416 96q-11 2 -18 11t-7 20q0 7 3 13.5t9 11.5t13 6l416 96q4 1 7 1t7 -1l416 -96q11 -2 18 -11t7 -20t-7 -20t-18 -11zM928 544q0 13 9.5 22.5t22.5 9.5t22.5 -9.5
t9.5 -22.5v-288q0 -13 -9.5 -22.5t-22.5 -9.5t-22.5 9.5t-9.5 22.5v288zM960 192q24 0 44 -47.5t20 -80.5q0 -26 -19 -45t-45 -19q-27 0 -45.5 18.5t-18.5 45.5q0 33 20 80.5t44 47.5z" />
    <glyph glyph-name="uniE626" unicode="&#xe626;" 
d="M662 841q-24 23 -57 23q-16 0 -30.5 -6t-25.5 -17l-46 -46q-5 -5 -9.5 -11.5t-7.5 -14t-4.5 -15t-1.5 -15.5q0 -23 12 -42l-435 -174q-46 -21 -55 -70q-10 -50 26 -86l407 -403q28 -27 66 -28h2q10 0 20 2q24 5 42.5 20.5t27.5 37.5l170 429q10 -7 21 -10.5t23 -3.5
q33 0 57 24l45 45q23 23 23 56.5t-23 56.5zM533 20q-2 -5 -5.5 -9t-8 -6.5t-9.5 -3.5q-4 -1 -8 -1q-6 0 -11.5 2.5t-9.5 6.5l-408 403q-12 12 -8.5 28.5t18.5 23.5l199 80q40 -13 99.5 -21.5t102.5 -14t98.5 -32.5t101.5 -77zM864 525l-46 -45q-11 -11 -22 0l-57 57
l-46 -115l4 10q-27 27 -58.5 48t-56 32t-59 19.5t-54 11.5t-54.5 8q-53 6 -83 13l272 109l-55 54q-12 12 0 23l45 45q11 12 23 0l247 -247q11 -11 0 -23zM528 288q33 0 56.5 23.5t23.5 56.5t-23.5 56.5t-56.5 23.5t-56.5 -23.5t-23.5 -56.5t23.5 -56.5t56.5 -23.5zM528 416
q20 0 34 -14t14 -34t-14 -34t-34 -14t-34 14t-14 34t14 34t34 14zM944 960q-33 0 -56.5 -23.5t-23.5 -56.5t23.5 -56.5t56.5 -23.5t56.5 23.5t23.5 56.5t-23.5 56.5t-56.5 23.5zM944 832q-20 0 -34 14t-14 34t14 34t34 14t34 -14t14 -34t-14 -34t-34 -14zM256 416
q0 -26 19 -45t45 -19t45 19t19 45t-19 45t-45 19t-45 -19t-19 -45zM320 448q13 0 22.5 -9.5t9.5 -22.5t-9.5 -22.5t-22.5 -9.5t-22.5 9.5t-9.5 22.5t9.5 22.5t22.5 9.5zM384 224q0 13 9.5 22.5t22.5 9.5t22.5 -9.5t9.5 -22.5t-9.5 -22.5t-22.5 -9.5t-22.5 9.5t-9.5 22.5z
M896 704q0 13 9.5 22.5t22.5 9.5t22.5 -9.5t9.5 -22.5t-9.5 -22.5t-22.5 -9.5t-22.5 9.5t-9.5 22.5z" />
    <glyph glyph-name="uniE627" unicode="&#xe627;" 
d="M512 392q52 0 96.5 26t70 70t25.5 96t-25.5 96.5t-70 70t-96.5 25.5q-79 0 -135.5 -56t-56.5 -136q0 -52 26 -96t70 -70t96 -26zM512 744q66 0 113 -47t47 -113t-47 -113t-113 -47t-113 47t-47 113t47 113t113 47zM512 960q-104 0 -192.5 -51t-140 -139.5t-51.5 -193.5
q0 -54 14 -111t42 -113.5t56.5 -105t72 -105t73.5 -93t74 -86.5q2 -3 7 -7.5t18 -11.5t26 -7h2q13 0 26 7t18 11.5t7 7.5q44 50 74 86.5t73.5 93t72 105t56.5 105t42 113.5t14 111q0 105 -51.5 193.5t-140 139.5t-192.5 51zM516 4q-1 -1 -5 -3l-2 2l-2 2q-35 40 -55 63.5
t-58 71t-61 82t-53 84t-47 90.5t-29 89t-12 91q0 87 43 160.5t116.5 116.5t160.5 43t160.5 -43t116.5 -116.5t43 -160.5q0 -191 -235 -476q-29 -37 -81 -96z" />
    <glyph glyph-name="uniE628" unicode="&#xe628;" 
d="M864 800h-704q-13 0 -22.5 -9.5t-9.5 -22.5v-448q0 -13 9.5 -22.5t22.5 -9.5h704q13 0 22.5 9.5t9.5 22.5v448q0 13 -9.5 22.5t-22.5 9.5zM864 320h-704v448h704v-448zM928 928h-832q-40 0 -68 -28t-28 -68v-640q0 -40 28 -68t68 -28h320v-39l-200 -26q-10 -2 -17 -11
t-7 -20q0 -9 4.5 -16t11.5 -11.5t16 -4.5h576q13 0 22.5 9.5t9.5 22.5q0 6 -2 11t-5 9t-7.5 7t-9.5 4l-200 26v39h320q40 0 68 28t28 68v640q0 40 -28 68t-68 28zM960 192q0 -13 -9.5 -22.5t-22.5 -9.5h-832q-13 0 -22.5 9.5t-9.5 22.5v640q0 13 9.5 22.5t22.5 9.5h832
q13 0 22.5 -9.5t9.5 -22.5v-640z" />
    <glyph glyph-name="uniE629" unicode="&#xe629;" 
d="M1005 650l-162 163q-19 19 -46 19h-570q-27 0 -46 -19l-162 -163q-19 -19 -19 -45q0 -8 2 -15.5t5.5 -14t8.5 -12.5l448 -477q6 -7 14 -12t16.5 -7.5t17.5 -2.5q29 0 48 22l448 477q16 18 16 43q0 8 -2 16t-6.5 15t-10.5 13zM583 608h-142l71 59zM537 688l87 73l65 -65
l-81 -67zM416 629l-81 67l65 65l87 -73zM592 576l-80 -399l-80 399h160zM624 576h157l-235 -393zM633 608l79 65l65 -65h-144zM663 768h112l-61 -51zM512 708l-71 60h142zM310 717l-61 51h112zM312 673l79 -65h-144zM400 576l78 -393l-235 393h157zM407 240l-315 336h113z
M819 576h113l-315 -336zM823 608l-87 86l74 61l147 -147h-134zM214 755l74 -61l-87 -86h-137z" />
    <glyph glyph-name="uniE62A" unicode="&#xe62a;" 
d="M941 877q-40 40 -89.5 61.5t-101.5 21.5q-89 0 -149 -60l-156 -157l-1 -1l-1 -1v0l-330 -333q-8 -8 -14 -16.5t-11 -18t-8 -20.5l-75 -272v-2l-5 -31q0 -46 33 -79t79 -33q4 0 9 0.5t9.5 1.5t8.5 2t7 1.5l3 0.5l271 71q11 3 20.5 8t18 11t16.5 14l488 492q73 73 59 180
q-12 90 -81 159zM512 199q-1 10 -3 21t-4.5 21.5t-6.5 20.5t-9 21l303 302q9 -30 9 -58.5t-10.5 -55t-30.5 -46.5v-1l-247 -249v6v6v5.5t-1 6.5zM473 312q-20 33 -42 55q-26 26 -65 48l305 305q12 -5 23.5 -12t22.5 -15.5t21 -18.5q24 -24 41 -57zM336 430q-23 9 -46 14
t-46 5l246 249q28 27 67.5 35.5t79.5 -1.5zM133 4q-16 -4 -21 -4q-13 0 -24 6.5t-17.5 17.5t-6.5 24q0 5 3 18l34 122q61 2 107 -44q47 -47 44 -109zM284 44q-1 33 -14.5 65t-39.5 57q-51 52 -120 55l32 115q3 11 12 22q48 35 114.5 25t117.5 -61q35 -36 51.5 -80.5
t10 -87.5t-33.5 -74l-12 -5zM918 583l-54 -54q0 3 0.5 7.5t0.5 7t-1 7.5q-8 96 -81 168q-26 26 -57 44.5t-65 28t-68 9.5l53 54q42 41 104 41q81 0 145 -64q60 -59 65 -133q4 -69 -42 -116z" />
    <glyph glyph-name="uniE62B" unicode="&#xe62b;" 
d="M512 960q-146 0 -249 -103t-103 -249q0 -36 12.5 -77t32.5 -80.5t40.5 -76.5t42.5 -78.5t33 -73.5q13 -36 27 -82.5t21.5 -72t20.5 -54.5t27.5 -43.5t38 -24t56.5 -9.5q29 0 50 6t36.5 20t25.5 29.5t20 43t17 52t18.5 63.5t23.5 72q11 31 33 72.5t43 79t40.5 77t32 80.5
t12.5 77q0 146 -103 249t-249 103zM595 90l-159 -19q-4 12 -8.5 27t-10.5 33v1l198 25q-1 -3 -4 -13t-5 -15q-6 -22 -11 -39zM408 163l-6.5 19.5t-6.5 20.5t-7 21h248q-7 -23 -11 -34zM512 0q-18 0 -28 2.5t-19 11t-17 26.5l136 17q-14 -38 -28 -47.5t-44 -9.5zM662 288
h-299q-17 36 -54 103q-21 37 -32 58t-25.5 52.5t-21 57.5t-6.5 49q0 119 84.5 203.5t203.5 84.5t203.5 -84.5t84.5 -203.5q0 -23 -6.5 -49t-21 -57.5t-25.5 -52.5t-32 -58q-12 -22 -19 -35.5t-17 -32.5t-17 -35zM512 800q7 0 11.5 -4.5t4.5 -11.5t-4.5 -11.5t-11.5 -4.5
q-66 0 -113 -47t-47 -113q0 -7 -4.5 -11.5t-11.5 -4.5t-11.5 4.5t-4.5 11.5q0 79 56.5 135.5t135.5 56.5z" />
    <glyph glyph-name="uniE62C" unicode="&#xe62c;" 
d="M800 544v128q0 119 -84.5 203.5t-203.5 84.5t-203.5 -84.5t-84.5 -203.5v-128q-40 0 -68 -28t-28 -68v-224q0 -119 84.5 -203.5t203.5 -84.5h192q119 0 203.5 84.5t84.5 203.5v224q0 40 -28 68t-68 28zM288 672q0 93 65.5 158.5t158.5 65.5t158.5 -65.5t65.5 -158.5v-128
h-64v128q0 66 -47 113t-113 47t-113 -47t-47 -113v-128h-64v128zM640 672v-128h-256v128q0 53 37.5 90.5t90.5 37.5t90.5 -37.5t37.5 -90.5zM832 352v-128q0 -93 -65.5 -158.5t-158.5 -65.5h-192q-93 0 -158.5 65.5t-65.5 158.5v224q0 13 9.5 22.5t22.5 9.5h64h448h64
q13 0 22.5 -9.5t9.5 -22.5v-96zM512 352q27 0 45.5 -18.5t18.5 -45.5q0 -28 -21 -86q-8 -21 -17 -31.5t-26 -10.5q-27 0 -43 42q-21 59 -21 86t18.5 45.5t45.5 18.5z" />
    <glyph glyph-name="uniE62D" unicode="&#xe62d;" 
d="M1005 516l-160 256q-18 28 -47 44t-62 16h-608q-53 0 -90.5 -37.5t-37.5 -90.5v-512q0 -53 37.5 -90.5t90.5 -37.5h608q33 0 62 16t47 44l160 256q12 21 16.5 44.5t0 47t-16.5 44.5zM950 414l-160 -256q-19 -30 -54 -30h-608q-17 0 -32 8.5t-23.5 23.5t-8.5 32v512
q0 26 19 45t45 19h608q35 0 54 -30l160 -256q21 -34 0 -68zM736 544q-40 0 -68 -28t-28 -68t28 -68t68 -28t68 28t28 68q0 26 -13 48t-35 35t-48 13zM735.5 384q-26.5 0 -45 18.5t-18.5 45.5q0 17 8.5 32t23.5 23.5t32 8.5t32 -8.5t23.5 -23.5t8.5 -32q0 -27 -19 -45.5
t-45.5 -18.5z" />
    <glyph glyph-name="uniE62E" unicode="&#xe62e;" 
d="M512 640q-106 0 -181 -75t-75 -181q0 -70 34.5 -129t93 -93t128.5 -34q106 0 181 75t75 181t-75 181t-181 75zM658 259q-52 -60 -131.5 -66.5t-139.5 45.5t-66.5 131.5t45.5 139.5q34 40 82.5 56.5t98.5 7.5t90 -43q13 -12 24 -25t19 -28t13.5 -30.5t8 -31.5t2.5 -32.5
t-3 -33t-8.5 -32t-14.5 -30.5t-20 -28zM512 512q7 0 11.5 -4.5t4.5 -11.5q0 -4 -2 -8t-6 -6t-8 -2q-40 0 -68 -28t-28 -68q0 -7 -4.5 -11.5t-11.5 -4.5q-16 0 -16 16q0 21 6.5 40.5t18.5 35t27.5 27.5t35 18.5t40.5 6.5zM944 671l-139 23l-44 110q-11 27 -35 43.5t-54 16.5
h-320q-30 0 -54 -16.5t-35 -43.5l-44 -110l-139 -23q-35 -6 -57.5 -33t-22.5 -62v-480q0 -40 28 -68t68 -28h832q40 0 68 28t28 68v480q0 23 -10.5 43.5t-28.5 34t-41 17.5zM960 96q0 -13 -9.5 -22.5t-22.5 -9.5h-832q-13 0 -22.5 9.5t-9.5 22.5v480q0 12 7.5 21t19.5 11
l174 29l57 143q4 9 12 14.5t18 5.5h320q22 0 30 -20l57 -143l174 -29q12 -2 19.5 -11t7.5 -21v-480z" />
    <glyph glyph-name="uniE62F" unicode="&#xe62f;" 
d="M973 554l-99 20q-7 20 -17 41l56 83q6 10 8.5 21t1.5 21.5t-5.5 20.5t-12.5 18l-62 62q-9 9 -20.5 14t-24.5 5q-19 0 -35 -11l-84 -56q-20 10 -41 17l-20 98q-4 23 -22 37.5t-41 14.5h-87q-7 0 -14.5 -2t-13.5 -5t-12 -7.5t-10.5 -10.5t-7.5 -12.5t-4 -14.5l-20 -98
q-10 -3 -20.5 -7.5t-20.5 -9.5l-83 56q-17 11 -36 11q-27 0 -45 -19l-62 -62q-16 -16 -18 -39t10 -42l56 -83q-10 -20 -17 -41l-99 -20q-22 -4 -36.5 -22t-14.5 -41v-87q0 -15 6.5 -28t18.5 -22t26 -12l99 -20q2 -7 5 -14t5.5 -13.5t6.5 -13.5l-56 -84q-8 -12 -10 -27t3 -29
t15 -24l62 -62q19 -19 45 -19q9 0 18.5 3t17.5 8l83 56q20 -10 41 -17l20 -99q3 -14 12 -26t22 -18.5t28 -6.5h88q22 0 40 14.5t22 36.5l20 99q20 7 41 17l84 -56q16 -11 35 -11q8 0 16 2.5t15.5 6.5t13.5 10l62 62q10 10 15 24t3 29t-10 27l-56 84q10 20 17 41l99 20
q22 4 36.5 22t14.5 40v87q0 39 -34 57q-9 4 -17 6zM862 385q-17 -4 -29.5 -15t-18.5 -27q-2 -4 -3.5 -8.5l-3 -9t-3.5 -8.5l-4 -8q-16 -33 4 -64l56 -83l-62 -62l-83 56q-6 3 -11.5 5.5t-12 4t-12.5 1.5q-15 0 -28 -7q-17 -8 -34 -14q-11 -4 -19.5 -11t-14.5 -16.5t-8 -20.5
l-19 -98h-88l-19 98q-7 36 -42 48q-9 3 -17.5 6.5t-16.5 7.5q-5 2 -9.5 3.5t-9 2.5t-9.5 1q-10 0 -19 -3t-17 -8l-83 -56l-62 62l56 83q20 31 4 64q-8 17 -14 34q-4 11 -11 19.5t-16.5 14.5t-20.5 8l-98 19v87l98 20q36 7 48 42q7 18 14 34q8 16 6.5 32.5t-10.5 31.5l-56 83
l62 62l83 -56q4 -3 8.5 -5t9 -3l9 -2t9.5 -1q14 0 28 7q17 8 34 14q16 6 27 18.5t15 29.5l19 98h87l20 -98q3 -17 14.5 -29.5t27.5 -18.5q18 -6 34 -14q7 -4 14 -5.5t14 -1.5q10 0 19 3t17 8l83 56l62 -62l-56 -83q-6 -10 -9 -20.5t-1.5 -22t6.5 -21.5q4 -8 7.5 -16.5
t6.5 -17.5q2 -7 5.5 -12.5t8 -10.5t10 -8.5t11.5 -6.5t13 -4l98 -20v-87zM512 672q-61 0 -112.5 -30t-81.5 -81.5t-30 -112.5q0 -93 65.5 -158.5t158.5 -65.5q61 0 112.5 30t81.5 81.5t30 112.5q0 93 -65.5 158.5t-158.5 65.5zM512 252q-81 0 -138.5 57.5t-57.5 138.5
q0 53 26 98t71.5 71.5t98.5 26.5q81 0 138.5 -57.5t57.5 -138.5t-57.5 -138.5t-138.5 -57.5zM512 576q-53 0 -90.5 -37.5t-37.5 -90.5t37.5 -90.5t90.5 -37.5t90.5 37.5t37.5 90.5t-37.5 90.5t-90.5 37.5zM512 352q-26 0 -48 13t-35 35t-13 48q0 40 28 68t68 28t68 -28
t28 -68q0 -26 -13 -48t-35 -35t-48 -13z" />
  </font>
</defs>
</svg>
