<?xml version="1.0" standalone="no"?>
<!DOCTYPE svg PUBLIC "-//W3C//DTD SVG 1.1//EN" "http://www.w3.org/Graphics/SVG/1.1/DTD/svg11.dtd" >
<svg xmlns="http://www.w3.org/2000/svg" xmlns:xlink="http://www.w3.org/1999/xlink" version="1.1">
<metadata>
Created by FontForge 20170731 at Fri May 22 09:46:14 2020
 By Aleksey,,,
</metadata>
<defs>
<font id="icomoon" horiz-adv-x="1024" >
  <font-face 
    font-family="icomoon"
    font-weight="400"
    font-stretch="normal"
    units-per-em="1024"
    panose-1="2 0 5 3 0 0 0 0 0 0"
    ascent="960"
    descent="-64"
    bbox="-1 -64 1025.26 973.072"
    underline-thickness="0"
    underline-position="0"
    unicode-range="U+0020-F1BC"
  />
<missing-glyph 
 />
    <glyph glyph-name=".notdef" 
 />
    <glyph glyph-name=".notdef" 
 />
    <glyph glyph-name=".null" horiz-adv-x="0" 
 />
    <glyph glyph-name="nonmarkingreturn" horiz-adv-x="341" 
 />
    <glyph glyph-name="space" unicode=" " horiz-adv-x="512" 
 />
    <glyph glyph-name="salient-right-arrow" unicode="&#xe000;" 
d="M261 913l43 43l507 -507l-1 -1l1 -1l-507 -507l-43 43l465 465z" />
    <glyph glyph-name="salient-left-arrow" unicode="&#xe001;" 
d="M769 -17l-43 -43l-507 507l1 1l-1 1l507 507l43 -43l-465 -465z" />
    <glyph glyph-name="salient-search" unicode="&#xe002;" 
d="M1008 94l-247 247q57 95 57 207q0 47 -10.5 92.5t-30.5 85.5t-48 75.5t-63 63t-75 48t-86 31t-93 10.5q-110 0 -203.5 -54.5t-148 -148t-54.5 -203.5t54.5 -203.5t148 -148t203.5 -54.5q56 0 108.5 14.5t98.5 42.5v-1l247 -246q5 -6 12.5 -7.5t15 0.5t13.5 8l100 100
q9 8 9 20.5t-8 20.5zM105 548q0 127 90 217t217 90t217 -90t90 -217t-90 -217t-217 -90t-217 90t-90 217z" />
    <glyph glyph-name="salient-x" unicode="&#xe003;" 
d="M937 156l-301 300l281 281q5 5 5.5 12t-4.5 12l-98 98q-5 5 -12 4.5t-13 -5.5l-280 -280l-281 281q-4 4 -8.5 5t-9 0.5t-7.5 -3.5l-98 -99q-5 -5 -4.5 -12t5.5 -12l282 -282l-302 -302q-6 -5 -6 -12t4 -12l99 -98q4 -5 11.5 -4.5t12.5 5.5l302 302l301 -301q5 -5 12 -5.5
t12 4.5l99 98q9 12 -2 25z" />
    <glyph glyph-name="salient-right-line" unicode="&#xe004;" 
d="M1013 953l11 -11l-1006 -1006l-11 11z" />
    <glyph glyph-name="salient-back-to-all" unicode="&#xe005;" 
d="M408 552h-397v397h397v-397zM36 577h347v347h-347v-347zM1017 552h-396v397h396v-397zM645 577h347v347h-347v-347zM408 -57h-396v396h396v-396zM36 -32h348v347h-348v-347zM1018 -57h-397v396h397v-396zM646 -32h347v347h-347v-347z" />
    <glyph glyph-name="salient-right-arrow-thin" unicode="&#xe006;" 
d="M267 919l16 17l488 -488l-488 -488l-16 17l471 471z" />
    <glyph glyph-name="salient-left-arrow-thin" unicode="&#xe007;" 
d="M735 919l-16 17l-488 -488l488 -488l16 17l-471 471z" />
    <glyph glyph-name="salient-down-arrow" unicode="&#xe008;" 
d="M977 682l43 -43l-507 -507l-1 1l-1 -1l-507 507l43 43l465 -465z" />
    <glyph glyph-name="salient-google-plus" unicode="&#xe009;" 
d="M559 896h-268q-35 0 -70 -10t-64 -28.5t-51.5 -43t-35 -54.5t-12.5 -60q0 -54 25 -98.5t72 -70.5t107 -26h6h6.5h6.5t6 1q-14 -26 -14 -50q0 -39 37 -74q-7 0 -15 -0.5t-16.5 -0.5h-15.5q-109 0 -186 -58.5t-77 -134.5q0 -47 37.5 -83.5t100 -55t136.5 -18.5
q121 0 192.5 57.5t71.5 135.5q0 59 -21 98t-73 76q-24 17 -47.5 42t-23.5 41q0 22 10 37t42 40q76 59 76 140q0 53 -23 96t-64 59h85zM465 241q4 -14 4 -28q0 -31 -10.5 -55.5t-32.5 -43.5t-61 -29.5t-91 -10.5q-76 0 -126.5 41.5t-50.5 101.5q0 57 58.5 98.5t136.5 40.5
q7 0 14 -0.5t13.5 -1.5t13.5 -2t13 -2.5t12 -3.5q7 -5 16.5 -11.5t15.5 -10.5t14 -10t13 -9.5t11.5 -9t10.5 -10t8.5 -10t7.5 -11t6 -11.5t4 -12zM301 532.5q-52 1.5 -95 50.5t-52 117t21.5 114t82.5 44t94.5 -50t51.5 -115q9 -68 -21 -115t-82 -45.5zM832 704v192h-64v-192
h-192v-64h192v-192h64v192h192v64h-192z" />
    <glyph glyph-name="salient-facebook" unicode="&#xe00a;" 
d="M576 -64h-192v512h-128v176h128v104q0 46 5.5 80t19 64t37 48.5t60 29t86.5 10.5h142v-177h-89q-45 0 -57 -15.5t-12 -54.5v-89h159l-19 -176h-140v-512z" />
    <glyph glyph-name="salient-twitter" unicode="&#xe00b;" 
d="M1024 766q-58 -26 -121 -34q33 20 57 50t36 67q-63 -37 -134 -51q-62 66 -153 66q-87 0 -148.5 -61.5t-61.5 -148.5q0 -12 1.5 -24t3.5 -24q-129 7 -241.5 65t-191.5 155q-28 -49 -28 -106q0 -54 25 -100t68 -75q-50 2 -95 26v-0.5v-1.5q0 -76 48 -134t121 -72
q-14 -4 -27.5 -6t-28.5 -2q-5 0 -10 0.5l-10 1t-9.5 1t-9.5 1.5q10 -31 29 -57.5t44.5 -46t57 -30.5t65.5 -12q-55 -43 -121.5 -66.5t-139.5 -23.5q-25 0 -50 3q147 -94 322 -94q112 0 210 35.5t168 95t120.5 136.5t75 161.5t24.5 169.5q0 14 -1 27q62 45 105 109z" />
    <glyph glyph-name="salient-down-arrow-thin" unicode="&#xe00c;" 
d="M985 654l17 -16l-488 -488l-488 488l16 16l472 -471z" />
    <glyph glyph-name="salient-pinterest" unicode="&#xe00d;" 
d="M512 960q-104 0 -199 -40.5t-163.5 -109t-109 -163.5t-40.5 -199t40.5 -199t109 -163.5t163.5 -109t199 -40.5t199 40.5t163.5 109t109 163.5t40.5 199t-40.5 199t-109 163.5t-163.5 109t-199 40.5zM562 276q-14 1 -25 4t-21 8.5t-18 10.5t-19 13t-20 13
q-18 -98 -43 -160.5t-74 -98.5q-7 35 -5.5 76.5t5 71t12 67t15.5 64.5t16.5 63t15.5 63q-16 27 -16 65t13 69.5t40 48t60 3.5q27 -11 33 -36.5t-3 -56t-19 -65.5t-16.5 -64t5 -51.5t44.5 -29.5q43 -9 78 15.5t54 68.5t26.5 94t-3.5 98t-38 75q-32 33 -74.5 46.5t-84 8
t-81 -26.5t-68 -52.5t-42.5 -75t-6 -90.5q2 -14 11 -30t15.5 -27t6 -29t-13.5 -41q-112 25 -107 176q3 70 41 129t95.5 93t122.5 41q81 9 152 -12t120.5 -72.5t59.5 -124.5q5 -52 0 -102.5t-26.5 -95.5t-51 -78.5t-73 -51.5t-93.5 -14z" />
    <glyph glyph-name="salient-heart" unicode="&#xe00e;" 
d="M1024 602q0 -64 -25.5 -120.5t-70.5 -97.5l-320 -320q-21 -21 -33 -32t-30 -21.5t-33 -10.5t-33 10.5t-30 21.5t-33 32l-320 320q-17 16 -32 35t-27 40t-20 44t-12.5 48t-4.5 51q0 122 86 208t208 86q64 0 120.5 -25.5t97.5 -71.5q41 46 97.5 71.5t120.5 25.5
q122 0 208 -86t86 -208z" />
    <glyph glyph-name="salient-heart-2" unicode="&#xe00f;" 
d="M1024 602q0 122 -86 208t-208 86q-64 0 -120.5 -25.5t-97.5 -71.5q-41 46 -97.5 71.5t-120.5 25.5q-122 0 -208 -86t-86 -208q0 -43 12 -83t33.5 -74t50.5 -61l320 -320q21 -21 33 -32t30 -21.5t33 -10.5t33 10.5t30 21.5t33 32l320 320q96 88 96 218zM841 479l-324 -325
l-5 -5l-5 5l-324 325q-55 49 -55 123q0 69 48.5 117.5t117.5 48.5q18 0 35 -3.5t32.5 -10.5t29.5 -17t26 -24l95 -104l95 104q49 55 123 55q69 0 117.5 -48.5t48.5 -117.5q0 -36 -14 -67.5t-41 -55.5z" />
    <glyph glyph-name="salient-plus" unicode="&#xe010;" 
d="M580 516v444h-136v-444h-444v-136h444v-444h136v444h444v136h-444z" />
    <glyph glyph-name="salient-pencil" unicode="&#xe011;" 
d="M640 839l-49 -84l112 -65l49 84zM559 699l-243 -421l112 -65l243 421zM691 884l75 -43q31 -18 40 -52.5t-9 -65.5l-70 -122l-275 -477l-170 -111q-30 -20 -49.5 -9t-17.5 48l12 202l346 599q18 31 52.5 40t65.5 -9zM275 77l121 80l-113 65z" />
    <glyph glyph-name="uniE012" unicode="&#xe012;" 
d="M882 655h-113v46q0 107 -76 182.5t-183 75.5q-70 0 -129.5 -34.5t-94 -94t-34.5 -129.5v-46h-114q-35 0 -60 -30.5t-25 -73.5v-509q0 -43 25 -73.5t60 -30.5h744q36 0 60.5 30.5t24.5 73.5v509q0 9 -1 18.5t-3.5 18t-6.5 16t-8.5 14.5t-10 12.5t-12 10t-13.5 8t-14.5 5
t-15.5 1.5zM361 701q0 61 43.5 105t105.5 44t106 -44t44 -105v-46h-299v46zM858 47h-696v499h696v-499z" />
    <glyph glyph-name="be" unicode="&#xe013;" 
d="M417 474q2 0 5 0.5t13 3.5t19 7.5t19.5 13.5t18.5 20.5t13.5 30.5t5.5 41q0 80 -49 122.5t-126 42.5h-321v-617h321l43 3q116 21 145 117q8 28 8 62q3 61 -25 105q-30 48 -90 48zM313 646h23q2 0 5 -0.5t10.5 -4t13 -9.5t10.5 -19t5 -31q0 -44 -14.5 -59t-40.5 -15h-168
v138h156zM328 248h-171v165h179h3.5t9.5 -1.5t13 -4.5t13.5 -9.5t13 -15t9 -22.5t3.5 -32q0 -78 -73 -80zM793 599q-48 0 -87 -13.5t-63 -34t-42 -46t-26 -50.5t-13 -46t-5 -34l-1 -13q3 -1 0.5 -13.5t2.5 -33.5t11 -46t24 -50.5t41.5 -46t65 -33.5t92.5 -13q9 -1 23.5 -0.5
t50.5 8t64 22.5t51 49.5t23 84.5h-109q0 -3 -0.5 -7.5t-5 -16t-14 -20t-30 -16t-49.5 -7.5l-31 3q-77 18 -77 105h319q10 73 -16 142q-47 126 -199 126zM890 413h-203q1 2 1.5 5.5t3.5 13.5t8 19t13.5 20t19 18.5t27 13t36.5 5.5q27 0 46.5 -9.5t28 -23.5t13.5 -28t6 -24
v-10zM661 719h254v-76h-254v76z" />
    <glyph glyph-name="vimeo" unicode="&#xe014;" 
d="M0 652l42 -55q3 3 9 7.5t22.5 14t30.5 15.5t29 6t23 -9q15 -18 86.5 -250.5t87.5 -266.5q13 -27 33.5 -51t50 -43t62.5 -19t70 22q27 17 64.5 48t87.5 77.5t99.5 106t94.5 125.5t79 144.5t48 155.5q24 137 -60 191q-70 43 -170 11q-104 -34 -162 -124q-30 -48 -40 -104
q45 28 77 24t49.5 -25.5t16.5 -59.5t-23 -79q-46 -85 -84 -135t-59 -50q-20 0 -38 48t-45 158q-6 24 -13 62.5t-12.5 71t-13 69.5t-19 64t-26.5 49t-38 31t-52 4q-37 -8 -82.5 -34.5t-83.5 -59.5t-71 -65.5t-51.5 -53.5z" />
    <glyph glyph-name="salient-m-eye" unicode="&#xe015;" 
d="M512 832q70 0 135.5 -21t115.5 -55t93.5 -75t73.5 -82t52 -75t32 -55l10 -21q-2 -5 -6 -13.5t-19 -34.5t-32 -51.5t-44.5 -60t-56.5 -64.5t-69.5 -60.5t-82.5 -51.5t-94.5 -34.5t-107.5 -13.5q-70 0 -135.5 21t-115.5 55t-93.5 74.5t-73.5 81.5t-52 74.5t-32 54.5l-10 21
q2 5 6 13.5t19 35t32 52t44.5 60.5t56.5 64.5t69.5 60t82.5 52t94.5 35t107.5 13.5zM512 747q-47 0 -92 -12.5t-81 -32t-70.5 -47t-59.5 -54.5t-49 -58t-38 -53t-26 -44q12 -21 26 -43t38 -52.5t49 -57t59.5 -54t70.5 -46.5t81 -31.5t92 -12.5t92 12.5t81 32t70.5 47
t59.5 54t49 57t38 52.5t26 44q-12 22 -26 44t-38 52.5t-49 57t-59.5 54t-70.5 47t-81 32t-92 12.5zM512 619q71 0 121 -50t50 -121t-50 -121t-121 -50t-121 50t-50 121t50 121t121 50zM512 533q-35 0 -60 -25t-25 -60t25 -60t60 -25t60 25t25 60t-25 60t-60 25z" />
    <glyph glyph-name="salient-m-clock" unicode="&#xe016;" 
d="M512 917q96 0 182.5 -37t149.5 -100t100 -149.5t37 -182.5t-37 -182.5t-100 -149.5t-149.5 -100t-182.5 -37t-182.5 37t-149.5 100t-100 149.5t-37 182.5t37 182.5t100 149.5t149.5 100t182.5 37zM512 832q-78 0 -149 -30.5t-122.5 -82t-82 -122.5t-30.5 -149t30.5 -149
t82 -122.5t122.5 -82t149 -30.5t149 30.5t122.5 82t82 122.5t30.5 149t-30.5 149t-82 122.5t-122.5 82t-149 30.5zM512 747q18 0 30.5 -12.5t12.5 -30.5v-238l115 -116q13 -12 13 -30t-12.5 -30.5t-30.5 -12.5t-30 13l-128 128q-13 12 -13 30v256q0 18 12.5 30.5t30.5 12.5z
" />
    <glyph glyph-name="salient-m-gear" unicode="&#xe023;" 
d="M512 960q53 0 90.5 -37.5t37.5 -90.5v-22q16 -5 38 -15l15 15q38 38 91 38q52 0 90 -38t38 -90q0 -53 -38 -91l-15 -15q10 -22 15 -38h22q53 0 90.5 -37.5t37.5 -90.5t-37.5 -90.5t-90.5 -37.5h-22q-5 -16 -15 -38l15 -15q38 -38 38 -91q0 -52 -38 -90t-90 -38
q-53 0 -91 38l-15 15q-22 -10 -38 -15v-22q0 -53 -37.5 -90.5t-90.5 -37.5t-90.5 37.5t-37.5 90.5v22q-16 5 -38 15l-15 -15q-38 -38 -90 -38q-53 0 -90.5 38t-37.5 90q0 54 37 91l15 15q-10 22 -15 38h-22q-53 0 -90.5 37.5t-37.5 90.5t37.5 90.5t90.5 37.5h22q5 16 15 38
l-15 15q-37 37 -37 91q0 52 37.5 90t90.5 38q52 0 90 -38l15 -15q22 10 38 15v22q0 53 37.5 90.5t90.5 37.5zM512 875q-18 0 -30.5 -12.5t-12.5 -30.5v-88q-74 -11 -136 -57l-62 63q-13 12 -30 12q-18 0 -30.5 -12.5t-12.5 -29.5q0 -18 12 -31l63 -62q-46 -62 -57 -136h-88
q-18 0 -30.5 -12.5t-12.5 -30.5t12.5 -30.5t30.5 -12.5h88q11 -74 57 -136l-63 -62q-12 -13 -12 -31q0 -17 12.5 -29.5t30.5 -12.5q17 0 30 12l62 63q62 -46 136 -57v-88q0 -18 12.5 -30.5t30.5 -12.5t30.5 12.5t12.5 30.5v88q74 11 136 57l62 -63q13 -12 30.5 -12t30 12.5
t12.5 30t-12 30.5l-63 62q46 62 57 136h88q18 0 30.5 12.5t12.5 30.5t-12.5 30.5t-30.5 12.5h-88q-11 74 -57 136l63 62q12 13 12 30.5t-12.5 30t-30 12.5t-30.5 -12l-62 -63q-62 46 -136 57v88q0 18 -12.5 30.5t-30.5 12.5zM512 619q71 0 121 -50t50 -121t-50 -121
t-121 -50t-121 50t-50 121t50 121t121 50zM512 533q-35 0 -60 -25t-25 -60t25 -60t60 -25t60 25t25 60t-25 60t-60 25z" />
    <glyph glyph-name="salient-m-heart" unicode="&#xe024;" 
d="M753 875q70 0 129 -34.5t93 -93.5t34 -128q0 -50 -19 -97.5t-56 -83.5l-422 -423l-422 423q-37 36 -56 83.5t-19 97.5q0 69 34 128t93 93.5t129 34.5q50 0 97 -19t84 -56l60 -61l60 61q37 36 84 55.5t97 19.5zM753 789q-33 0 -64.5 -12.5t-55.5 -37.5l-121 -120l-121 120
q-24 25 -55.5 37.5t-64.5 12.5q-47 0 -86 -22.5t-62 -62t-23 -85.5q0 -34 12.5 -65t37.5 -56l362 -362l362 362q25 25 37.5 56t12.5 65q0 46 -23 85.5t-62 62t-86 22.5z" />
    <glyph glyph-name="uniE034" unicode="&#xe034;" 
d="M213 960h598q53 0 90.5 -37.5t37.5 -90.5v-768q0 -53 -37.5 -90.5t-90.5 -37.5h-598q-53 0 -90.5 37.5t-37.5 90.5v768q0 53 37.5 90.5t90.5 37.5zM341 235h342q17 0 29.5 -12.5t12.5 -30.5t-12.5 -30.5t-29.5 -12.5h-342q-17 0 -29.5 12.5t-12.5 30.5t12.5 30.5
t29.5 12.5zM341 405h342q17 0 29.5 -12.5t12.5 -30t-12.5 -30t-29.5 -12.5h-342q-17 0 -29.5 12.5t-12.5 30t12.5 30t29.5 12.5zM811 875h-598q-17 0 -29.5 -12.5t-12.5 -30.5v-768q0 -18 12.5 -30.5t29.5 -12.5h598q17 0 29.5 12.5t12.5 30.5v768q0 18 -12.5 30.5
t-29.5 12.5zM341 576h342q17 0 29.5 -12.5t12.5 -30t-12.5 -30t-29.5 -12.5h-342q-17 0 -29.5 12.5t-12.5 30t12.5 30t29.5 12.5zM341 747h171q18 0 30.5 -12.5t12.5 -30.5t-12.5 -30.5t-30.5 -12.5h-171q-17 0 -29.5 12.5t-12.5 30.5t12.5 30.5t29.5 12.5z" />
    <glyph glyph-name="salient-m-search" unicode="&#xe036;" 
d="M427 917q78 0 149 -30.5t122.5 -81.5t82 -122.5t30.5 -149.5q0 -67 -22 -128t-62 -111l242 -242q12 -13 12 -31t-12 -30t-30 -12t-31 12l-242 242q-50 -40 -111 -62t-128 -22q-78 0 -149.5 30.5t-122.5 82t-81.5 122.5t-30.5 149t30.5 149.5t81.5 122.5t122.5 81.5
t149.5 30.5zM426.5 832q-60.5 0 -116 -23.5t-95.5 -63.5t-63.5 -95.5t-23.5 -116t23.5 -116t63.5 -95.5t95.5 -63.5t116 -23.5t116 23.5t95.5 63.5t63.5 95.5t23.5 116t-23.5 116t-63.5 95.5t-95.5 63.5t-116 23.5z" />
    <glyph glyph-name="salient-m-prev" unicode="&#xe050;" 
d="M725.5 789q17.5 0 30 -12.5t12.5 -29.5q0 -18 -12 -31l-269 -268l269 -269q12 -12 12 -30t-12.5 -30t-30.5 -12t-30 12l-299 299q-12 13 -12 30t12 30l299 299q13 12 30.5 12zM256 789q18 0 30.5 -12.5t12.5 -29.5v-598q0 -17 -12.5 -29.5t-30.5 -12.5t-30.5 12.5
t-12.5 29.5v598q0 17 12.5 29.5t30.5 12.5z" />
    <glyph glyph-name="salient-m-rewind" unicode="&#xe051;" 
d="M768 789q18 0 30.5 -12.5t12.5 -30t-13 -30.5l-268 -268l268 -268q13 -13 13 -30.5t-12.5 -30t-30.5 -12.5t-30 12l-299 299q-12 12 -12 30t12 30l299 299q12 12 30 12zM512 789q18 0 30.5 -12.5t12.5 -30t-13 -30.5l-268 -268l268 -268q13 -13 13 -30.5t-12.5 -30
t-30.5 -12.5t-30 12l-299 299q-12 12 -12 30t12 30l299 299q12 12 30 12z" />
    <glyph glyph-name="salient-m-play" unicode="&#xe052;" 
d="M171 64v768l640 -384zM645 448l-389 233v-466z" />
    <glyph glyph-name="salient-m-stop" unicode="&#xe054;" 
d="M256 832h512q53 0 90.5 -37.5t37.5 -90.5v-512q0 -53 -37.5 -90.5t-90.5 -37.5h-512q-53 0 -90.5 37.5t-37.5 90.5v512q0 53 37.5 90.5t90.5 37.5zM768 747h-512q-18 0 -30.5 -12.5t-12.5 -30.5v-512q0 -18 12.5 -30.5t30.5 -12.5h512q18 0 30.5 12.5t12.5 30.5v512
q0 18 -12.5 30.5t-30.5 12.5z" />
    <glyph glyph-name="salient-m-ff" unicode="&#xe055;" 
d="M469 789q18 0 30 -12l299 -299q13 -12 13 -30t-13 -30l-299 -299q-12 -12 -29.5 -12t-30 12.5t-12.5 29.5q0 18 12 31l268 268l-268 268q-12 13 -12 31t12 30t30 12zM213 789q18 0 30 -12l299 -299q13 -12 13 -30t-13 -30l-299 -299q-12 -12 -29.5 -12t-30 12.5
t-12.5 29.5q0 18 12 31l268 268l-268 268q-12 13 -12 31t12 30t30 12z" />
    <glyph glyph-name="salient-m-next" unicode="&#xe056;" 
d="M256 789q18 0 30 -12l299 -299q12 -12 12 -30t-12 -30l-299 -299q-12 -12 -30 -12t-30.5 12t-12.5 30q0 17 13 30l268 269l-268 268q-13 13 -13 31q0 17 12.5 29.5t30.5 12.5zM725.5 789q17.5 0 30 -12.5t12.5 -29.5v-598q0 -17 -12.5 -29.5t-30 -12.5t-30 12.5
t-12.5 29.5v598q0 17 12.5 29.5t30 12.5z" />
    <glyph glyph-name="uniE05B" unicode="&#xe05b;" 
d="M864 256q-39 0 -72.5 -17.5t-55.5 -47.5l-422 215q6 21 6 42q0 27 -9 52l424 206q15 -20 34.5 -35t44 -23t50.5 -8q66 0 113 47t47 113t-47 113t-113 47q-26 0 -50.5 -8t-44 -23t-34.5 -34.5t-23 -44t-8 -50.5q0 -18 4 -36l-430 -209q-47 53 -118 53q-66 0 -113 -47
t-47 -113q0 -43 21.5 -80t58.5 -58.5t80 -21.5q37 0 70 16.5t55 44.5l424 -216q-5 -19 -5 -37q0 -66 47 -113t113 -47q26 0 50.5 8t44 23t34.5 34.5t23 44t8 50.5q0 66 -47 113t-113 47zM864 896q40 0 68 -28t28 -68t-28 -68t-68 -28t-68 28t-28 68t28 68t68 28zM160 352
q-40 0 -68 28t-28 68t28 68t68 28t68 -28t28 -68t-28 -68t-68 -28zM864 0q-40 0 -68 28t-28 68t28 68t68 28t68 -28t28 -68t-28 -68t-68 -28z" />
    <glyph glyph-name="uniE067" unicode="&#xe067;" 
d="M96 512h-64q-13 0 -22.5 -9.5t-9.5 -22.5v-64q0 -13 9.5 -22.5t22.5 -9.5h64q13 0 22.5 9.5t9.5 22.5v64q0 13 -9.5 22.5t-22.5 9.5zM992 480h-672q-13 0 -22.5 -9.5t-9.5 -22.5t9.5 -22.5t22.5 -9.5h672q13 0 22.5 9.5t9.5 22.5t-9.5 22.5t-22.5 9.5zM96 256h-64
q-13 0 -22.5 -9.5t-9.5 -22.5v-64q0 -13 9.5 -22.5t22.5 -9.5h64q13 0 22.5 9.5t9.5 22.5v64q0 13 -9.5 22.5t-22.5 9.5zM992 224h-672q-13 0 -22.5 -9.5t-9.5 -22.5t9.5 -22.5t22.5 -9.5h672q13 0 22.5 9.5t9.5 22.5t-9.5 22.5t-22.5 9.5zM96 768h-64q-13 0 -22.5 -9.5
t-9.5 -22.5v-64q0 -13 9.5 -22.5t22.5 -9.5h64q13 0 22.5 9.5t9.5 22.5v64q0 13 -9.5 22.5t-22.5 9.5zM320 672h672q13 0 22.5 9.5t9.5 22.5t-9.5 22.5t-22.5 9.5h-672q-13 0 -22.5 -9.5t-9.5 -22.5t9.5 -22.5t22.5 -9.5z" />
    <glyph glyph-name="salient-m-user" unicode="&#xe074;" 
d="M512 960q70 0 128.5 -34.5t93 -93t34.5 -128.5v-128q0 -53 -20.5 -101t-57.5 -83q97 -15 172.5 -45t118.5 -70.5t43 -85.5v-84q0 -53 -37.5 -90.5t-90.5 -37.5h-768q-53 0 -90.5 37.5t-37.5 90.5v84q0 45 43 85.5t118.5 70.5t172.5 45q-37 36 -57.5 83.5t-20.5 100.5v128
q0 70 34.5 128.5t93 93t128.5 34.5zM512 320q-93 0 -179 -15t-150 -41q-26 -11 -46 -23t-30.5 -21.5t-16 -17t-5.5 -11.5v-84q0 -18 12.5 -30.5t30.5 -12.5h768q18 0 30.5 12.5t12.5 30.5v84q0 4 -5.5 11t-16 17t-30.5 22t-46 23q-64 26 -150 41t-179 15zM512 875
q-71 0 -121 -50t-50 -121v-128q0 -71 50 -121t121 -50t121 50t50 121v128q0 71 -50 121t-121 50z" />
    <glyph glyph-name="salient-m-chat" unicode="&#xe076;" 
d="M171 917h682q53 0 90.5 -37.5t37.5 -90.5v-469q0 -53 -37.5 -90.5t-90.5 -37.5h-341l-299 -213v213h-42q-53 0 -90.5 37.5t-37.5 90.5v469q0 53 37.5 90.5t90.5 37.5zM853 832h-682q-18 0 -30.5 -12.5t-12.5 -30.5v-469q0 -18 12.5 -30.5t30.5 -12.5h128v-133l186 133
h368q18 0 30.5 12.5t12.5 30.5v469q0 18 -12.5 30.5t-30.5 12.5z" />
    <glyph glyph-name="salient-m-social" unicode="&#xe081;" 
d="M768 875q71 0 121 -50t50 -121t-50 -121t-121 -50q-38 0 -71.5 15.5t-57.5 43.5l-216 -108q4 -18 4 -36t-4 -36l216 -108q24 28 57.5 43.5t71.5 15.5q71 0 121 -50t50 -121t-50 -121t-121 -50t-121 50t-50 121q0 18 4 36l-216 108q-24 -28 -57.5 -43.5t-71.5 -15.5
q-71 0 -121 50t-50 121t50 121t121 50q38 0 71.5 -15.5t57.5 -43.5l216 108q-4 18 -4 36q0 71 50 121t121 50zM256 533q-35 0 -60 -25t-25 -60t25 -60t60 -25t60 25t25 60t-25 60t-60 25zM768 277q-35 0 -60 -25t-25 -60t25 -60t60 -25t60 25t25 60t-25 60t-60 25zM768 789
q-35 0 -60 -25t-25 -60t25 -60t60 -25t60 25t25 60t-25 60t-60 25z" />
    <glyph glyph-name="uniE087" unicode="&#xe087;" 
d="M515 639q-39 0 -74.5 -15.5t-61 -41t-41 -61t-15.5 -74.5q0 -80 56.5 -136t136 -56t135.5 56t56 135.5t-56 136t-136 56.5zM515 319q-52 0 -90.5 38t-38.5 91t37.5 90.5t90.5 37.5t90.5 -37.5t37.5 -90.5t-37 -91t-90 -38zM1024 455q0 1 -0.5 2.5t-0.5 2.5t-0.5 1.5
l-0.5 0.5v1t-1 2q-68 157 -206 246.5t-301 89.5q-46 0 -91 -7.5t-88 -22t-83 -35.5t-76.5 -49.5t-68 -62t-58.5 -74t-47 -85.5v-1v-1.5t-1 -1.5v-3l-1 -2q-1 -6 -1 -9t1 -8q0 -1 1 -3v-2q0 -1 0.5 -1.5l0.5 -0.5v-1v-2q69 -157 207.5 -245.5t302.5 -88.5t302.5 88.5
t206.5 245.5q1 1 1 3h1v1q0 1 0.5 3l0.5 2q1 6 1 9t-1 8zM512 159q-142 0 -263 74.5t-184 213.5q63 139 185 214.5t264 75.5q141 0 261.5 -75.5t183.5 -214.5q-63 -139 -184 -213.5t-263 -74.5z" />
    <glyph glyph-name="salient-m-left-arrow" unicode="&#xe094;" 
d="M426.5 789q17.5 0 30 -12.5t12.5 -29.5q0 -18 -12 -31l-226 -225h665q18 0 30.5 -12.5t12.5 -30.5t-12.5 -30.5t-30.5 -12.5h-665l226 -225q12 -13 12 -31q0 -17 -12.5 -29.5t-29.5 -12.5q-18 0 -31 12l-298 299q-13 13 -13 30t13 30l298 299q13 12 30.5 12z" />
    <glyph glyph-name="salient-m-right-arrow" unicode="&#xe095;" 
d="M597 789q18 0 31 -12l298 -299q13 -12 13 -30t-13 -30l-298 -299q-13 -12 -31 -12t-30 12t-12 30t12 31l226 225h-665q-18 0 -30.5 12.5t-12.5 30.5t12.5 30.5t30.5 12.5h665l-226 225q-12 13 -12 31t12 30t30 12z" />
    <glyph glyph-name="salient-m-sound" unicode="&#xe098;" 
d="M213 619l214 213v-768l-214 213h-85q-53 0 -90.5 37.5t-37.5 90.5v84q0 53 37.5 91.5t90.5 38.5h85zM341 270v358l-92 -95h-121q-17 0 -30 -13t-13 -31v-84q0 -17 12.5 -29.5t30.5 -12.5h121zM620 590q12 0 23 -7t16 -19q24 -56 24 -116q0 -61 -24 -116q-5 -12 -15.5 -19
t-23.5 -7q-16 0 -29.5 12t-13.5 31q0 7 4 16q16 40 16 83t-16 83q-4 8 -4 17q0 19 13 30.5t30 11.5zM750 709q24 0 37 -21q33 -55 49 -113q17 -63 17 -127t-17 -127q-16 -59 -49 -114q-12 -20 -37 -20q-16 0 -29 12t-13 30q0 12 6 22q26 44 40 93q14 50 14 104t-14 104
q-14 49 -40 93q-6 9 -6 21q0 18 13 30.5t29 12.5zM878 826q23 0 35 -18q55 -80 83 -171.5t28 -188.5t-28 -188.5t-83 -171.5q-12 -18 -35 -18q-17 0 -29.5 12t-12.5 30q0 14 7 24q96 141 96 312q0 84 -24.5 163.5t-71.5 148.5q-7 10 -7 24q0 18 12.5 30t29.5 12z" />
    <glyph glyph-name="salient-m-mute" unicode="&#xe099;" 
d="M256 619l213 213v-768l-213 213h-85q-53 0 -90.5 37.5t-37.5 90.5v84q0 53 37.5 91.5t90.5 38.5h85zM384 270v358l-93 -95h-120q-18 0 -30.5 -13t-12.5 -31v-84q0 -17 12.5 -29.5t30.5 -12.5h120zM896 619q18 0 30.5 -12.5t12.5 -30.5t-13 -30l-98 -98l98 -98
q13 -12 13 -30t-12.5 -30.5t-30.5 -12.5t-30 13l-98 98l-98 -98q-12 -13 -30 -13t-30.5 12.5t-12.5 30.5t13 30l98 98l-98 98q-13 12 -13 30t12.5 30.5t30.5 12.5t30 -13l98 -98l98 98q12 13 30 13z" />
    <glyph glyph-name="uniE09B" unicode="&#xe09b;" 
d="M512 883l137 -286l313 -46l-226 -226l7 -45l46 -270l-277 148l-277 -148l46 270l7 45l-226 226l312 46l21 43zM512 944q-14 0 -27 -5t-23.5 -14t-16.5 -22l-116 -241l-267 -39q-20 -3 -36 -16t-23 -33q-4 -13 -3.5 -26t6 -25t15.5 -22l195 -195l-45 -271q-4 -20 4.5 -39
t25.5 -31q10 -7 20.5 -10t22.5 -3q19 0 35 9l233 125l232 -125q17 -9 36 -9q24 0 43 13q17 12 25.5 31t4.5 39l-45 271l195 195q32 32 18 73q-7 20 -23 33t-36 16l-267 39l-116 241q-5 9 -12 17t-15.5 13.5t-18.5 8t-21 2.5z" />
    <glyph glyph-name="e900" unicode="&#xe106;" 
d="M512 960q43 0 82.5 -17t68 -45.5t45.5 -68t17 -82.5v-43h171v-640q0 -53 -37.5 -90.5t-90.5 -37.5h-512q-53 0 -90.5 37.5t-37.5 90.5v640h171v43q0 43 17 82.5t45.5 68t68 45.5t82.5 17zM811 64v555h-598v-555q0 -18 12.5 -30.5t30.5 -12.5h512q18 0 30.5 12.5
t12.5 30.5zM512 875q-53 0 -90.5 -37.5t-37.5 -90.5v-43h256v43q0 53 -37.5 90.5t-90.5 37.5z" />
    <glyph glyph-name="uniE110" unicode="&#xe110;" 
d="M725 917h128q53 0 90.5 -37.5t37.5 -90.5v-128q0 -17 -12.5 -29.5t-30 -12.5t-30 12.5t-12.5 29.5v128q0 18 -12.5 30.5t-30.5 12.5h-128q-17 0 -29.5 12.5t-12.5 30t12.5 30t29.5 12.5zM85.5 277q17.5 0 30 -12.5t12.5 -29.5v-128q0 -18 12.5 -30.5t30.5 -12.5h128
q17 0 29.5 -12.5t12.5 -30t-12.5 -30t-29.5 -12.5h-128q-53 0 -90.5 37.5t-37.5 90.5v128q0 17 12.5 29.5t30 12.5zM171 917h128q17 0 29.5 -12.5t12.5 -30t-12.5 -30t-29.5 -12.5h-128q-18 0 -30.5 -12.5t-12.5 -30.5v-128q0 -17 -12.5 -29.5t-30 -12.5t-30 12.5
t-12.5 29.5v128q0 53 37.5 90.5t90.5 37.5zM938.5 277q17.5 0 30 -12.5t12.5 -29.5v-128q0 -53 -37.5 -90.5t-90.5 -37.5h-128q-17 0 -29.5 12.5t-12.5 30t12.5 30t29.5 12.5h128q18 0 30.5 12.5t12.5 30.5v128q0 17 12.5 29.5t30 12.5z" />
    <glyph glyph-name="uniE111" unicode="&#xe111;" 
d="M725.5 917q17.5 0 30 -12.5t12.5 -29.5v-128q0 -18 12.5 -30.5t30.5 -12.5h128q17 0 29.5 -12.5t12.5 -30t-12.5 -30t-29.5 -12.5h-128q-53 0 -90.5 37.5t-37.5 90.5v128q0 17 12.5 29.5t30 12.5zM85 277h128q53 0 90.5 -37.5t37.5 -90.5v-128q0 -17 -12.5 -29.5
t-30 -12.5t-30 12.5t-12.5 29.5v128q0 18 -12.5 30.5t-30.5 12.5h-128q-17 0 -29.5 12.5t-12.5 30t12.5 30t29.5 12.5zM298.5 917q17.5 0 30 -12.5t12.5 -29.5v-128q0 -53 -37.5 -90.5t-90.5 -37.5h-128q-17 0 -29.5 12.5t-12.5 30t12.5 30t29.5 12.5h128q18 0 30.5 12.5
t12.5 30.5v128q0 17 12.5 29.5t30 12.5zM811 277h128q17 0 29.5 -12.5t12.5 -30t-12.5 -30t-29.5 -12.5h-128q-18 0 -30.5 -12.5t-12.5 -30.5v-128q0 -17 -12.5 -29.5t-30 -12.5t-30 12.5t-12.5 29.5v128q0 53 37.5 90.5t90.5 37.5z" />
    <glyph glyph-name="salient-m-close" unicode="&#xe117;" 
d="M811 789q18 0 30 -12t12 -30t-12 -31l-269 -268l269 -268q12 -13 12 -31t-12 -30t-30 -12t-31 12l-268 269l-268 -269q-13 -12 -31 -12t-30 12t-12 30t12 31l269 268l-269 268q-12 13 -12 31t12 30t30 12t31 -12l268 -269l268 269q13 12 31 12z" />
    <glyph glyph-name="salient-m-menu" unicode="&#xe120;" 
d="M128 747h768q18 0 30.5 -12.5t12.5 -30.5t-12.5 -30.5t-30.5 -12.5h-768q-18 0 -30.5 12.5t-12.5 30.5t12.5 30.5t30.5 12.5zM128 235h768q18 0 30.5 -12.5t12.5 -30.5t-12.5 -30.5t-30.5 -12.5h-768q-18 0 -30.5 12.5t-12.5 30.5t12.5 30.5t30.5 12.5zM128 491h768
q18 0 30.5 -12.5t12.5 -30.5t-12.5 -30.5t-30.5 -12.5h-768q-18 0 -30.5 12.5t-12.5 30.5t12.5 30.5t30.5 12.5z" />
    <glyph glyph-name="soundcloud" unicode="&#xe600;" 
d="M892 446q-27 0 -51 -10q-8 86 -74.5 145t-157.5 59q-44 0 -84 -15q-13 -5 -13 -15v-403q0 -6 4 -10t10 -5h366q55 0 93.5 37t38.5 89.5t-38.5 90t-93.5 37.5zM400 192h32l16 224l-16 224h-32l-16 -224zM304 192h-32l-16 163l16 157h32l16 -160zM144 192h32l16 128
l-16 128h-32l-16 -128zM16 256h32l16 64l-16 64h-32l-16 -64z" />
    <glyph glyph-name="button-arrow" unicode="&#xe601;" 
d="M660 95q-6 0 -11.5 2.5t-9.5 6.5q-3 4 -5.5 8t-3 8.5t0 9t3 9t5.5 7.5l271 271h-873q-8 0 -14.5 4t-10.5 11t-4 15q0 12 8.5 21t20.5 9h873l-271 271q-3 4 -5.5 8t-3 8.5t0 9t3 9t5.5 7.5q2 2 5 4t6 3t6.5 1.5t6.5 0t6.5 -1.5t6 -3t5.5 -4l343 -343l-343 -343
q-9 -9 -21 -9z" />
    <glyph glyph-name="salient-thin-line" unicode="&#xe602;" 
d="M284 444h474v-15h-474v15z" />
    <glyph glyph-name="uniE603" unicode="&#xe603;" 
d="M102 687q0 -116 76 -164q27 -18 57.5 -24.5t56.5 -6.5h5.5h4.5h4q1 -3 -0.5 -14.5t6 -38t24.5 -49.5h-2q-17 0 -36 -1t-48 -5.5t-54.5 -12.5t-52.5 -22.5t-46 -34t-31.5 -49t-12.5 -66.5q0 -32 8.5 -59.5t23.5 -46t32.5 -33t39.5 -23t41 -14.5t39 -8.5t31.5 -3.5t22.5 -1
h4h1.5h3h4.5q12 0 26 1t35.5 4t45 10.5t45.5 17.5q119 58 119 199q0 32 -9 60t-28 52t-32 37.5t-37 34.5q-13 11 -19.5 17.5t-15 15.5t-12 16.5t-3.5 14.5q0 10 5.5 20t12.5 16.5l21 19.5q68 61 68 161q0 62 -14 98t-55 58q1 1 3 1.5t5 1.5t6 1.5t6.5 1t6.5 0.5t6.5 0.5
t5.5 0.5q1 1 5 1q16 2 25.5 4t23 6t19.5 10t6 15v5h-235q-59 -1 -120 -31q-117 -60 -118 -193zM482 225q3 -54 -38.5 -90.5t-111.5 -41.5q-71 -5 -121.5 25t-53.5 83q-4 53 42 95q47 42 117 48h16q64 0 105.5 -33.5t44.5 -85.5zM420 736q18 -60 -3.5 -115t-63.5 -67l-20 -3
q-18 0 -37 9.5t-34.5 25.5t-28.5 39t-20 49q-7 30 -6.5 56.5t9.5 51.5q18 51 59 63q10 2 20 2q48 0 78 -24.5t47 -86.5zM817 559v154h-97v-154h-154v-97h154v-154h97v154h154v97h-154z" />
    <glyph glyph-name="pinterest" unicode="&#xe604;" 
d="M441 296q-9 -50 -17 -85t-21.5 -77.5t-29 -73.5t-38.5 -61t-51 -50q-9 47 -7 102.5t6.5 95t15.5 90t21 86.5t22.5 84.5t20.5 84.5q-17 29 -21 68.5t5.5 75.5t29.5 66.5t50 40.5t67 -3q30 -12 40.5 -39t4.5 -61t-18.5 -72.5t-23 -76t-13.5 -70t13.5 -55.5t54.5 -31
q48 -10 89.5 12t68 64t42 97.5t16.5 110.5t-14 105.5t-45 81.5q-43 43 -100 61t-112.5 11t-108.5 -35t-91 -70.5t-56.5 -101t-8.5 -120.5q3 -20 15 -41t21 -35.5t8 -39t-18 -54.5q-81 18 -114 78.5t-30 156.5q3 71 33.5 135t79 109t109.5 73.5t125 35.5q108 13 204 -15.5
t161.5 -98t79.5 -167.5q5 -49 3.5 -98t-14.5 -95.5t-32.5 -88t-49 -75.5t-64 -58t-78.5 -35.5t-92 -7.5q-15 1 -29 4.5t-24 8t-21.5 11t-20 12.5t-21 14.5t-22.5 15.5z" />
    <glyph glyph-name="uniE605" unicode="&#xe605;" 
d="M260 817q0 -42 -29 -70.5t-77 -28.5q-46 0 -74.5 28.5t-28.5 70.5t29 70t76 28t75 -28t29 -70zM56 6v634h197v-634h-197zM371 438q0 88 -5 202h171l9 -88h4q25 40 75 71.5t121 31.5q102 0 164.5 -69.5t62.5 -204.5v-375h-197v352q0 31 -6 55.5t-17.5 43t-31 28.5
t-45.5 10q-20 0 -37 -6.5t-29 -17t-20.5 -23t-14.5 -27.5q-7 -16 -7 -49v-366h-197v432z" />
    <glyph glyph-name="salient-cart" unicode="&#xe606;" 
d="M240 755l-18 107h-219l19 -111h110l79 -458h609l203 462h-783zM752 397h-454l-43 253h609zM336 214q-38 0 -64.5 -27t-26.5 -64.5t26.5 -64.5t64.5 -27q25 0 46 12t33 33.5t12 45.5q0 38 -26.5 65t-64.5 27zM705 214q-38 0 -65 -27t-27 -64.5t27 -64.5t65 -27q24 0 45 12
t33.5 33.5t12.5 46t-12.5 45.5t-33.5 33.5t-45 12.5z" />
    <glyph glyph-name="salient-m-bag" unicode="&#xe900;" horiz-adv-x="853" 
d="M768 -64h-683q-35 0 -60 25t-25 60v683q0 17 7 33t18 27.5t27 18t33 6.5h171v43q0 35 17 64.5t46.5 46.5t64.5 17h85q53 0 90.5 -37.5t37.5 -90.5v-43h171q17 0 33 -6.5t27.5 -18t18 -27.5t6.5 -33v-683q0 -35 -25 -60t-60 -25zM512 832q0 4 -0.5 7.5t-2 7t-3.5 7t-4 6
t-5 5t-6 4.5t-6.5 3t-7.5 2t-8 1h-85q-18 0 -30.5 -12.5t-12.5 -30.5v-43h171v43zM597 704v-43q0 -11 -5.5 -21t-15.5 -15.5t-21 -5.5q-18 0 -30.5 12.5t-12.5 29.5v43h-171v-43q0 -11 -5.5 -21t-15.5 -15.5t-21 -5.5q-18 0 -30.5 12.5t-12.5 29.5v43h-171v-683h683v683
h-171z" />
    <glyph glyph-name="search" unicode="&#xe901;" 
d="M978.5 -26.5q-10.5 -10.5 -25.5 -10.5t-25 11l-210 210q-115 -98 -264 -98q-112 0 -207 56t-150 152t-55 209t55 209.5t150 152t206.5 55.5t206.5 -55.5t150 -152t55 -209.5q0 -152 -96 -268l209 -210q11 -11 11 -26t-10.5 -25.5zM791 503q0 93 -45.5 171.5t-123 124
t-168.5 45.5q-69 0 -131.5 -27t-107.5 -72.5t-71.5 -108.5t-26.5 -133q0 -56 17 -108t48 -94t72.5 -73.5t93 -48.5t106.5 -17q45 0 89 12t81 34t68 53.5t52.5 69t34 82t12.5 90.5zM953 -39q-16 0 -27 11l-208 208q-54 -45 -120 -70q-14 -6 -28 -10t-28.5 -7t-29 -5
t-29.5 -3.5t-29 -1.5q-83 0 -159 32t-134 91q-39 40 -66.5 87.5t-41.5 100.5t-14 109q0 84 31.5 160.5t90 136t134.5 91.5t159 32t158.5 -32t134.5 -91q29 -30 51.5 -64.5t38 -72t23.5 -78t8 -82.5q0 -76 -26 -146q-25 -67 -70 -122l208 -208q11 -12 11 -28t-11 -27t-27 -11
zM719 187l211 -211q9 -10 23 -10q7 0 13 2.5t10 7.5q7 6 9 14.5t0 17.5t-9 15l-211 212l2 1q96 116 96 267q0 113 -55 208.5t-149 151t-205 55.5t-205.5 -55.5t-149.5 -151t-55 -208t55 -208t149.5 -151.5t205.5 -56q72 0 140 25.5t123 72.5zM454 159q-141 0 -240 101
q-49 49 -74.5 111.5t-25.5 131.5q0 142 99.5 243t240 101t240.5 -101q48 -49 73.5 -111.5t25.5 -131.5q0 -142 -99 -243q-100 -100 -240 -101zM454 842q-91 0 -168 -45.5t-122 -123.5t-45 -170t45 -170t122 -123.5t167.5 -45.5t167.5 45.5t122 123.5t45 170q0 55 -17 107
t-48 93.5t-72 73t-92 48.5t-105 17zM953 -39q-16 0 -27 11l-208 209q-54 -46 -120 -71q-35 -13 -71 -19.5t-73 -6.5q-85 0 -162 33q-74 31 -131.5 89.5t-88.5 133.5q-33 78 -33 163t33 163q31 76 88.5 134t131.5 90q77 33 161.5 33t161.5 -33q74 -32 131 -90
q12 -12 22.5 -24t20 -25.5t17.5 -27t15.5 -28t13.5 -29.5q6 -13 10.5 -26t8 -26.5t6 -27t4.5 -27.5t3 -28t1 -28q0 -76 -26 -146q-12 -33 -29.5 -63.5t-40.5 -58.5l208 -208q11 -12 11 -28t-11 -27t-27 -11zM719 187l210 -212q10 -9 24 -9q7 0 13 2.5t10 6.5q10 10 10 24
t-10 24l-210 212l1 1q46 56 71 125t25 142q0 38 -6.5 74.5t-19 70t-30.5 64.5t-40.5 58t-49 50t-57.5 41t-64 31t-69 19.5t-73 6.5q-84 0 -159.5 -33t-130.5 -88.5t-87.5 -132.5t-32.5 -161q0 -112 55 -207.5t149.5 -151.5t205.5 -56q149 0 263 98zM454 159q-68 0 -130 26
t-110 75q-100 101 -100 243q0 69 26 131.5t74 111.5q99 101 239.5 101t240.5 -101q19 -19 34.5 -41t27.5 -46t20.5 -49.5t12.5 -52t4 -54.5q0 -142 -99 -243q-20 -19 -41.5 -35t-45 -28t-48.5 -20.5t-51.5 -13t-53.5 -4.5zM454 842q-68 0 -130 -27t-107 -72.5t-71.5 -108
t-26.5 -131.5q0 -92 45 -170t122 -123.5t167.5 -45.5t168 45.5t122 123.5t44.5 170t-44.5 170t-122 123.5t-167.5 45.5zM953 -42q-8 0 -15.5 3.5t-13.5 8.5l-206 207q-54 -45 -119 -70q-70 -26 -145 -26q-85 0 -163 33q-74 32 -132 90.5t-89 134.5q-5 11 -9 22.5t-7.5 23
t-6 23t-4.5 23.5t-3.5 24t-2 24t-0.5 24q0 86 33 164q31 76 89 134q19 20 40 36.5t44.5 30t47.5 24.5q78 33 162.5 33t162.5 -33q25 -11 48 -24.5t44 -30t40 -36.5q58 -58 90 -134q32 -78 32 -164q0 -76 -26 -147q-6 -16 -13.5 -32t-16 -31t-18.5 -29.5t-21 -28.5l207 -207
q11 -12 11 -29t-11 -29q-3 -3 -6.5 -5t-7 -3.5t-7.5 -2.5t-8 -1zM719 190l212 -213q9 -9 22 -9q4 0 8 1t7.5 3t6.5 5q6 6 8 14t0 16t-8 14l-213 214l3 3q46 56 71 124.5t25 140.5q0 112 -55 207t-148.5 150t-204 55t-204 -55t-148 -150t-54.5 -207t54.5 -207t148 -150
t204.5 -55q148 0 261 97zM454 157q-69 0 -131.5 26t-110.5 75q-100 102 -100 245t100 244.5t241.5 101.5t241.5 -101q49 -49 74.5 -112.5t25.5 -132.5q0 -143 -100 -245q-24 -24 -52 -43t-58.5 -32t-63.5 -19.5t-67 -6.5zM454 840q-90 0 -166.5 -45.5t-121 -123
t-44.5 -168.5q0 -68 26 -130.5t70.5 -107.5t106 -71.5t129 -26.5t129 26.5t106 71.5t71 107.5t26.5 130.5q0 91 -44.5 168.5t-121 123t-166.5 45.5zM953 -42q-17 0 -29 12l-206 206q-54 -45 -119 -69q-70 -27 -145 -27q-85 0 -163 34q-75 32 -132.5 90.5t-89.5 134.5
q-33 78 -33 164t33 165q32 76 89.5 134.5t132.5 90.5q19 8 39 14t40.5 10.5t41 6.5t42.5 2q85 0 162 -33q75 -32 133 -90.5t89 -134.5q7 -16 12 -32t9 -32.5t6.5 -33t4 -33.5t1.5 -34q0 -15 -1 -30t-3 -30t-5 -29.5t-7.5 -29t-9.5 -28.5q-24 -66 -69 -121l206 -206
q12 -12 12 -29.5t-12 -29.5t-29 -12zM719 192l213 -214q1 -2 2.5 -3t3.5 -2t3.5 -2t3.5 -1.5t4 -0.5h4q12 0 21 9q6 6 8 13.5t0 15.5t-8 14l-213 214l3 4q96 114 96 264q0 112 -54.5 206.5t-148 149.5t-203.5 55q-83 0 -158 -32.5t-129.5 -87.5t-87 -131t-32.5 -160
q0 -111 54.5 -206t148 -150t204.5 -55q147 0 261 96zM454 156q-142 0 -243 102q-32 32 -54.5 71.5t-34 83.5t-11.5 90q0 144 100 245q49 50 111.5 76t131.5 26q142 0 242 -101.5t100 -245.5t-100 -245q-14 -14 -29 -26.5t-31.5 -22.5t-33.5 -18.5t-35 -15t-36.5 -11
t-38 -6.5t-38.5 -2zM453.5 839q-89.5 0 -166 -45t-121 -122.5t-44.5 -168.5t44.5 -168.5t121 -122t166.5 -44.5q67 0 128.5 26.5t105.5 71.5t70.5 107t26.5 130q0 91 -44.5 168.5t-121 122.5t-166 45zM953 -45q-18 0 -31 13l-204 205q-13 -11 -27.5 -21t-29 -18.5t-30 -16
t-31.5 -13.5q-35 -13 -72 -19.5t-74 -6.5q-86 0 -164 33q-75 32 -133.5 91t-89.5 136q-33 79 -33 165.5t33 165.5q31 76 89.5 135t133.5 91q78 33 163.5 33t163.5 -33q38 -16 71.5 -39t62.5 -52q58 -59 90 -135q33 -79 33 -166q0 -25 -3 -50t-9 -49.5t-15 -48.5
q-24 -65 -67 -120l204 -204q13 -13 13 -31.5t-13 -31.5q-4 -4 -9 -7t-10.5 -4.5t-11.5 -1.5zM718 179l207 -207q12 -12 28 -12t27.5 11.5t11.5 28t-12 27.5l-207 208l2 2q44 54 68 120q13 35 19.5 71.5t6.5 74.5q0 43 -8.5 84t-24.5 80q-16 37 -38 70.5t-50.5 62.5t-62 52
t-70.5 38q-38 17 -78.5 25t-82.5 8q-85 0 -162 -33q-74 -32 -131.5 -90t-89.5 -133q-32 -78 -32 -163.5t32 -164.5q32 -75 89.5 -133t131.5 -90q77 -33 162 -33q74 0 144 26q22 8 42 18.5t39.5 23t36.5 27.5zM953 -34q-7 0 -12.5 2.5t-10.5 7.5l-211 212l-3 -2
q-114 -97 -262 -97q-111 0 -205.5 55.5t-149 151t-54.5 207.5q0 84 32.5 160.5t87 132t130.5 88.5t159 33q110 0 204.5 -55.5t149 -151t54.5 -207.5q0 -73 -24.5 -141.5t-71.5 -124.5l-2 -2l212 -212q9 -10 9 -23.5t-9.5 -23.5t-22.5 -10zM719 195l215 -215q3 -4 8 -6.5
t11 -2.5q11 0 19 8.5t8 20t-8 19.5l-214 215l4 6q95 114 95 263q0 48 -10.5 94t-30.5 86t-47.5 75.5t-62.5 63.5t-75 48.5t-85 31t-92 10.5q-33 0 -65.5 -5.5t-62.5 -15.5t-58 -25t-52.5 -33t-47 -40.5t-40.5 -48t-32.5 -54t-24.5 -58.5t-15.5 -62.5t-5.5 -66.5
q0 -111 54 -205t147 -149t203 -55q146 0 259 96zM454 154q-143 0 -245 102q-48 50 -74.5 113.5t-26.5 133.5q0 145 101.5 247.5t244.5 102.5t244 -102.5t101 -247.5t-101 -247t-244 -102zM454 848q-141 0 -241 -101q-48 -49 -74 -112t-26 -132q0 -143 100 -243.5t241 -100.5
q68 0 130 26t110 75q100 100 100 243t-100 244q-19 19 -41 35t-45.5 28t-48.5 20.5t-51.5 13t-53.5 4.5zM454 165q-68 0 -130 27t-106.5 72t-71 107.5t-26.5 131.5t26.5 131.5t71 108t106.5 72t130 26.5q90 0 167 -45t121.5 -123t44.5 -170t-44.5 -169.5t-121.5 -123
t-167 -45.5zM453.5 836q-89.5 0 -165 -44.5t-119.5 -121.5t-44 -167q0 -68 26 -129.5t70 -106t105 -71t128 -26.5q89 0 164.5 44.5t119.5 121.5t44 167t-44 167t-119.5 121.5t-165 44.5zM953 -45q-18 0 -31 13l-204 205q-54 -44 -118 -69q-35 -13 -72 -19.5t-74 -6.5
q-86 0 -164 33q-75 33 -133 91.5t-90 135.5q-5 11 -9 22.5t-7.5 23t-6 23t-4.5 23.5t-3.5 24t-2 24.5t-0.5 24.5q0 87 33 166q32 76 90 135t133 91q78 33 163.5 33t163.5 -33q75 -32 133.5 -91t90.5 -135q10 -27 17.5 -54t11.5 -55t4 -57q0 -38 -7 -75t-20 -73
q-8 -22 -18 -42.5t-22.5 -40t-26.5 -37.5l204 -204q13 -13 13 -31.5t-13 -31.5t-31 -13zM718 179l207 -208q2 -1 4 -3t4.5 -3t4.5 -2t4.5 -1.5l5 -1t5.5 -0.5q16 0 27.5 11.5t11.5 28t-11 27.5l-208 208l2 2q44 54 68 120q26 70 26 146q0 86 -33 164q-31 75 -89 133
q-14 15 -29.5 28t-32 24t-34 21t-36.5 18q-77 33 -161 33q-42 0 -83 -8.5t-79 -24.5q-37 -16 -70 -39t-62 -52q-57 -58 -89 -133q-16 -39 -24.5 -80t-8.5 -84q0 -85 33 -164q32 -75 89 -133t132 -90q77 -33 162 -33q75 0 144 26q32 12 62 29.5t57 39.5zM953 -33q-13 0 -23 9
l-211 212l-3 -2q-36 -31 -79 -52.5t-89.5 -33t-94 -11.5t-93.5 11t-86 31.5t-75.5 49t-63.5 64.5t-48 76.5t-31 87t-11 94.5q0 112 55 207.5t149 151t205 55.5q83 0 158.5 -33t130 -88.5t87 -132t32.5 -160.5q0 -36 -6.5 -72t-18.5 -69.5t-30 -65t-41 -59.5l-2 -2l212 -212
q9 -10 9 -23.5t-9.5 -23t-22.5 -9.5zM719 195l214 -216q9 -8 20 -8t19 8.5t8 20t-8 19.5l-214 215l5 6q94 114 94 263q0 111 -54 205.5t-147 149t-202 54.5q-82 0 -157 -32.5t-129 -87t-86 -130.5t-32 -159q0 -111 54 -205t147 -149t203 -55q146 0 259 96zM454 154
q-143 0 -244 102q-49 50 -75 113.5t-26 133.5q0 145 101 247t244 102t244 -102t101 -247t-101 -247q-102 -102 -244 -102zM454 848q-141 0 -241 -101t-100 -244t100 -244t241 -101t240.5 101t99.5 244q0 46 -11.5 89.5t-34 82.5t-54.5 72q-100 100 -240 101zM453.5 165
q-67.5 0 -129.5 27t-106.5 72t-71 107.5t-26.5 131.5q0 55 17 106.5t48 93t72 73t91.5 48.5t105.5 17q90 0 167 -45.5t121.5 -123t44.5 -169.5q0 -69 -26.5 -131.5t-71 -107.5t-106.5 -72t-129.5 -27zM453.5 836q-66.5 0 -127.5 -26.5t-105 -71t-70 -106t-26 -129.5
q0 -45 11.5 -88t33 -80t52 -67.5t66.5 -52t78.5 -33.5t87.5 -12q89 0 164.5 44.5t119.5 121.5t44 167q0 68 -26 129.5t-70 106t-105 71t-127.5 26.5zM953 -47q-19 0 -33 13l-202 203q-27 -21 -56.5 -38t-60.5 -29q-36 -13 -72.5 -20t-74.5 -7q-86 0 -165 34
q-76 33 -134.5 92t-90.5 136q-16 39 -24.5 81t-8.5 85q0 87 33 167q32 76 91 135q29 30 62.5 53t71.5 39q79 34 165 34t164 -34q76 -32 134.5 -91.5t90.5 -135.5q5 -12 9 -23.5t7 -23t6 -23.5t5 -24t3.5 -24t2 -24.5t0.5 -24.5q0 -77 -26 -149q-6 -16 -13.5 -31.5
t-15.5 -30.5t-17.5 -29t-20.5 -27l203 -204q13 -13 13 -32.5t-13.5 -33t-32.5 -13.5zM718 183l209 -210q11 -11 26 -11q4 0 7.5 1t6.5 2.5t6 3.5l6 4q7 7 9.5 16.5t0 19t-9.5 16.5l-209 210l3 3q44 54 67 120q13 34 19.5 71t6.5 74q0 85 -32 163q-31 75 -89 133
q-19 19 -39.5 35.5t-43.5 30t-48 23.5q-76 33 -160 33q-42 0 -82.5 -8t-78.5 -25q-74 -31 -131 -89q-19 -20 -35.5 -41t-29.5 -44t-24 -48q-6 -16 -11 -31.5t-9 -32t-6.5 -33t-4 -33t-1.5 -33.5q0 -85 32 -163q32 -75 89 -132.5t131 -89.5q38 -16 78.5 -24.5t82.5 -8.5
q74 0 143 26q65 24 118 69zM953 -36q-7 0 -13.5 2.5t-11.5 7.5l-210 211v-1q-115 -97 -264 -97q-112 0 -206.5 55.5t-149.5 151.5t-55 209t55 209t149.5 151.5t206.5 55.5q83 0 159 -33t131 -88.5t88 -132.5t33 -162q0 -73 -25 -142t-72 -126l210 -211q10 -10 10 -24.5
t-10.5 -25t-24.5 -10.5zM719 198l216 -217q8 -7 18 -7t17.5 7.5t7.5 18t-7 17.5l-216 217l6 8q94 113 94 261q0 110 -54 204t-146.5 148.5t-200.5 54.5q-82 0 -156 -32.5t-128 -87t-86 -129.5t-32 -158q0 -110 54 -203.5t146.5 -148t201.5 -54.5q146 0 258 95zM454 151
q-144 0 -246 103t-102 249q0 71 26.5 135t75.5 114q102 103 246 103t245 -103q14 -14 26.5 -29.5t23 -32.5t18.5 -34.5t14.5 -36t11 -37.5t6.5 -39t2 -40q0 -146 -101.5 -249t-245.5 -103zM454 845q-140 0 -239 -100q-32 -32 -54 -71t-33.5 -82t-11.5 -89q0 -142 99 -242
t239 -100q67 0 129 26t109 74q99 100 99 242t-98.5 242t-238.5 100zM453.5 163q-91.5 0 -168.5 45.5t-122 124t-45 170.5q0 46 12 90.5t33.5 81.5t52.5 68.5t68 53.5t80.5 34.5t89.5 12.5q68 0 130 -27t107 -73t72 -109t27 -132q0 -92 -45 -170.5t-122.5 -124t-169 -45.5z
M454 834q-89 0 -164 -44.5t-119 -120.5t-44 -166t44 -166t119 -120.5t163.5 -44.5t163.5 44.5t119 120.5t44 166q0 135 -94 232q-100 96 -232 99z" />
    <glyph glyph-name="uniE902" unicode="&#xe902;" 
d="M512.5 941q40.5 0 77.5 -16t63.5 -42.5t42.5 -63.5q8 -18 12 -37.5t4 -39.5v-40h172v-629q0 -50 -34 -85q-18 -17 -39 -26t-46 -9h-505q-49 0 -84 35t-35 85v629h173v40q0 20 4 39.5t12 37.5q15 37 42 63.5t63.5 42.5t77 16zM805 73v550h-585v-550q0 -8 3 -15t9 -13
q12 -12 28 -12h505q17 0 28.5 11.5t11.5 28.5v0zM513 861q-50 0 -85 -34.5t-35 -84.5v-40h239v40q0 49 -35 84q-17 18 -38.5 26.5t-45.5 8.5z" />
    <glyph glyph-name="uniE903" unicode="&#xe903;" 
d="M765 -52h-505q-51 0 -87.5 36.5t-36.5 88.5v634h173v35q0 41 16 79q5 13 12 24.5t14.5 21.5t16.5 19q14 14 30.5 25t34.5 19q38 16 80 16q20 0 40 -4t39 -12q38 -16 65 -44q14 -13 24.5 -29.5t18.5 -35.5q17 -38 17 -79v-35h173v-634q0 -52 -36.5 -88.5t-88.5 -36.5z
M146 697v-624q0 -48 33.5 -81t80.5 -33h505q47 0 81 33q11 11 18.5 24t11 27t3.5 30v624h-172v45q0 20 -4 38.5t-12 36.5q-5 12 -11.5 23t-14 20.5t-15.5 18.5q-7 7 -14 12.5t-14.5 11t-16 10t-17.5 7.5q-36 16 -75.5 16t-75.5 -16q-17 -7 -32.5 -17.5t-28.5 -23.5
q-7 -6 -12.5 -13.5l-11 -15t-10 -16t-8.5 -17.5q-15 -36 -15 -75v-45h-173zM765 28h-505q-18 0 -31.5 13t-13.5 32v555h595v-560q-1 -8 -4.5 -14.5t-8.5 -12.5q-13 -13 -32 -13zM226 618v-545q0 -14 10 -24.5t24 -10.5h505q14 0 25 10q5 5 7.5 11.5t2.5 13.5v545h-574z
M637 697h-249v45q0 52 36.5 88.5t88 36.5t88 -36.5t36.5 -88.5v-45zM398 707h229v35q0 24 -8.5 44t-25.5 37q-11 11 -23.5 18.5t-27 11t-29.5 3.5v5v-5q-48 0 -81.5 -33.5t-33.5 -80.5v-35z" />
    <glyph glyph-name="uniE904" unicode="&#xe904;" 
d="M765 -57h-505q-53 0 -91 38t-38 92v639h173v30q0 21 4 41.5t12 39.5q6 13 12.5 25t15 22.5t17.5 19.5q7 7 14.5 13t16 12t17.5 10.5t18.5 9t19.5 7.5t20 5t20.5 3t21.5 1q42 0 81 -16.5t66 -44.5q14 -14 25.5 -30.5t19.5 -36t12.5 -40t4.5 -41.5v-30h173v-639
q0 -54 -38 -92t-92 -38zM151 692v-619q0 -45 32 -77t77 -32h505q45 0 77 32t32 77v619h-172v50q0 13 -2 25.5t-5 24.5t-8 23q-4 9 -8.5 17t-9.5 15.5t-11 14.5l-12 14q-25 25 -60 40t-73 15q-6 0 -11.5 -0.5t-10.5 -1t-10.5 -1.5t-10.5 -2t-10.5 -2.5t-10.5 -3.5l-10 -4
q-35 -15 -60 -40.5t-40 -60.5q-8 -17 -11.5 -35.5t-3.5 -37.5v-50h-173zM765 23h-505q-20 0 -35 14.5t-15 35.5v560h605v-570h-1q-3 -15 -14 -25q-2 -3 -4.5 -5t-5.5 -3.5l-6 -3t-6 -2l-6 -1t-7 -0.5zM231 613v-540q0 -12 8.5 -21t20.5 -9h505q4 0 8 1t7 3t6 5t5 6t3 7t1 8
v540h-564zM642 692h-259v50q0 18 4.5 34t13 30.5t20.5 27.5q19 18 42 28t50 10q53 0 91 -38t38 -92v-50zM403 712h219v30q0 23 -8 42t-24 35q-32 32 -77 32v10v-10q-46 0 -78 -32t-32 -77v-30z" />
    <glyph glyph-name="uniE905" unicode="&#xe905;" 
d="M765 -62h-505q-18 0 -35 4.5t-32 13.5t-28 22q-39 39 -39 95v645h172v24q0 14 2 28.5t6 28t10 26.5q8 20 19.5 37t25.5 31q29 29 68.5 46t83 17t83.5 -17q8 -3 15.5 -7t14.5 -8.5t13.5 -9t12.5 -10t12 -11.5q29 -28 46 -68q8 -19 12.5 -40t4.5 -43v-24h173v-645
q0 -56 -40 -95q-19 -20 -43 -30t-52 -10zM136 707v-634q0 -52 36.5 -88.5t87.5 -36.5h505q52 0 88 36.5t36 88.5v634h-172v35q0 41 -17 79q-16 38 -43 65q-14 14 -30 25t-35 19q-38 16 -79 16h-1q-41 0 -79 -16q-18 -8 -34.5 -19t-30.5 -25q-27 -27 -43 -65t-16 -79v-35
h-173zM765 -42h-505q-47 0 -80.5 33.5t-33.5 81.5v624h173v45q0 39 15 75q5 12 11.5 23t14 21t16.5 18q25 26 61 42q36 15 76 15q19 0 38 -4t37 -11q36 -16 62 -42t41.5 -62t15.5 -75v-45h172v-624q0 -48 -33 -81.5t-81 -33.5zM156 687v-614q0 -43 30.5 -73.5t73.5 -30.5
h505q22 0 40 7.5t34 22.5q30 31 30 74v614h-173v55q0 37 -14 71q-5 12 -11 22t-13 19.5t-15 17.5q-5 5 -10.5 9.5t-11 8.5t-11.5 8t-12.5 7t-13.5 6q-34 15 -71 15h-1q-37 0 -71 -15t-58.5 -39.5t-39 -58.5t-14.5 -71v-55h-173zM765 18h-505q-23 0 -39 16q-8 8 -12 18t-4 21
v565h615v-580h-2q-4 -14 -14 -24q-16 -16 -39 -16zM215 628v-555q0 -9 3.5 -17t10.5 -15q13 -13 31 -13h505q19 0 32 13q9 10 12 23l1 4v560h-595zM765 38h-505q-14 0 -24 10q-3 3 -5 5.5t-3 6t-2 6.5t-1 7v545h575v-545q0 -14 -10 -25q-5 -5 -11.5 -7.5t-13.5 -2.5z
M236 607v-534q0 -10 7 -17.5t17 -7.5h505q5 0 9.5 2t7.5 5q8 8 8 18v534h-554zM647 687h-269v55q0 56 39.5 95.5t95 39.5t95 -39.5t39.5 -95.5v-55zM388 697h249v45q0 26 -9 48t-27 40q-37 36 -88.5 36t-88 -36t-36.5 -88v-45zM627 707h-229v35q0 47 34 81q32 32 76 33v5h10
v-5q44 -1 76 -33q33 -34 33 -81v-35zM409 718h208v24q0 43 -30.5 73.5t-73.5 30.5t-73.5 -30.5t-30.5 -73.5v-24z" />
    <glyph glyph-name="search-icon-material" unicode="&#xe906;" horiz-adv-x="1021" 
d="M1006 22l-215 215q47 58 72.5 129t25.5 149v0q0 91 -35 173t-95 141.5t-142 95t-172.5 35.5t-172.5 -35.5t-141.5 -95t-95 -141.5t-35.5 -173q0 -72 22.5 -139.5t63.5 -122.5t96 -96t122.5 -63.5t140.5 -22.5q155 0 275 96l-1 -1l216 -215q15 -15 35 -15q21 0 36 15
t15 35q0 11 -4 20t-11 16v0zM101 515.5q0 93.5 46 172.5t125 125t173 46q31 0 61.5 -5.5t58 -16t53.5 -25t48 -34t41.5 -41.5t34 -48t25.5 -53.5t16.5 -58t5.5 -62.5q0 -93 -46.5 -172t-125.5 -125.5t-172.5 -46.5t-172.5 46.5t-125 125.5t-46 172.5z" />
    <glyph glyph-name="head_circle" unicode="&#xe907;" 
d="M512 960q-104 0 -199 -40.5t-163.5 -109t-109 -163.5t-40.5 -199q0 -179 111 -319v1q22 -29 48 -53q70 -67 161 -104t192 -37q104 0 198.5 40.5t163 109t109.5 163.5t41 199q0 70 -18.5 136t-51.5 122.5t-80.5 103.5t-103.5 80t-122 51.5t-136 18.5v0zM512 875
q87 0 166 -34t136 -91t91 -136t34 -166v-2q0 -46 -10 -91t-29 -85.5t-45 -75.5v1q-84 45 -182 60h-3q59 62 59 149v0v107v5q0 98 -74 164q-62 53 -144 54q-90 0 -154 -64t-64 -154v-5v-107q0 -17 3 -34t8 -32.5t12 -30t16.5 -27.5t20.5 -25q-101 -15 -188 -61l3 2
q-83 110 -83 250v2q0 70 21.5 135t61 117.5t92 92t117.5 61t135 21.5v0zM512 21h-1q-82 0 -156 29.5t-131 82.5q7 3 16 7q26 11 57.5 19.5t66 14.5t72 9t75.5 3q161 0 271 -46q9 -4 17 -8q-58 -52 -131.5 -81.5t-154.5 -29.5h-1v0zM375 404v107q0 28 11 53t29 43.5t43.5 29
t52.5 10.5q57 0 97 -40t40 -96v-107q0 -37 -18.5 -68.5t-50 -49.5t-68.5 -18q-27 0 -52.5 10.5t-43.5 29t-29 44t-11 52.5z" />
    <glyph glyph-name="woo-zoom-icon" unicode="&#xe908;" 
d="M512 864q113 0 209 -55.5t151.5 -151.5t55.5 -209t-55.5 -209t-151.5 -151.5t-209 -55.5t-209 55.5t-151.5 151.5t-55.5 209t55.5 209t151.5 151.5t209 55.5zM512 960q-104 0 -199 -40.5t-163.5 -109t-109 -163.5t-40.5 -199t40.5 -199t109 -163.5t163.5 -109t199 -40.5
t199 40.5t163.5 109t109 163.5t40.5 199t-40.5 199t-109 163.5t-163.5 109t-199 40.5zM512 212q-10 0 -18.5 4t-15 10t-10.5 15t-4 19v370q0 13 6.5 24t17.5 17.5t24 6.5q20 0 34 -14t14 -34v-370q0 -13 -6.5 -24t-17.5 -17.5t-24 -6.5zM697 397h-370q-8 0 -15 2.5t-13 7
t-10.5 10t-7 13t-2.5 15.5q0 13 6.5 24t17.5 17.5t24 6.5h370q13 0 24 -6.5t17.5 -17.5t6.5 -24q0 -20 -14 -34t-34 -14z" />
    <glyph glyph-name="arrow-right" unicode="&#xe909;" 
d="M597 768q18 0 31 -12l298 -299q13 -12 13 -30t-13 -31l-298 -298q-13 -13 -31 -13t-30 12.5t-12 30.5t12 30l226 226h-665q-18 0 -30.5 12.5t-12.5 30t12.5 30t30.5 12.5h665l-226 226q-12 12 -12 30q0 19 12 31t30 12z" />
    <glyph glyph-name="woo-zoom-icon-minus" unicode="&#xe90a;" 
d="M512 864q113 0 209 -55.5t151.5 -151.5t55.5 -209t-55.5 -209t-151.5 -151.5t-209 -55.5t-209 55.5t-151.5 151.5t-55.5 209t55.5 209t151.5 151.5t209 55.5zM512 960q-104 0 -199 -40.5t-163.5 -109t-109 -163.5t-40.5 -199t40.5 -199t109 -163.5t163.5 -109t199 -40.5
t199 40.5t163.5 109t109 163.5t40.5 199t-40.5 199t-109 163.5t-163.5 109t-199 40.5zM697 397h-370q-6 0 -12.5 1.5t-11.5 5t-9.5 7.5t-7.5 9.5t-5 11.5t-2 13q0 13 6.5 24t17.5 17.5t24 6.5h370q13 0 24 -6.5t17.5 -17.5t6.5 -24q0 -20 -14 -34t-34 -14z" />
    <glyph glyph-name="artstation" unicode="&#xe90b;" 
d="M0 204l87 -150q13 -26 37.5 -41.5t54.5 -15.5h574l-119 207h-634zM1024 203q0 30 -17 56l-336 585q-7 12 -16.5 22t-21 17.5t-25.5 11.5t-28 4h-178l520 -901l81 142q13 21 17 33.5t4 29.5zM549 350l-232 403l-232 -403h464z" />
    <glyph glyph-name="discord" unicode="&#xe90c;" 
d="M863 960q44 0 76.5 -31t34.5 -75v-918l-114 97l-63 57l-68 60l28 -94h-599q-45 0 -76.5 30t-31.5 75v693q0 43 32 74.5t77 31.5h704zM602 718h-2l-8 -9q39 -11 72 -27.5t46 -27.5l13 -11q-21 11 -41.5 19t-40.5 14t-39 10t-39 6q-38 6 -105 0h-9q-6 0 -14.5 -1t-20 -3.5
t-24 -6t-28.5 -9t-33 -11.5l-31 -15q5 5 14.5 12.5t45 25.5t77.5 28l-6 6q-8 0 -22 -1t-53 -14.5t-73 -39.5q-3 -5 -8.5 -15t-18.5 -42t-23.5 -65.5t-18.5 -82t-8 -94.5q2 -3 5.5 -8t17 -18t30 -23t45.5 -18.5t62 -9.5q1 2 4.5 6.5t12.5 16t17 20.5q-29 8 -52 23t-31 26
l-8 10q5 -2 14 -8h2q1 0 1.5 -0.5t1.5 -0.5v-1q1 -1 3 -1q29 -12 39 -17q36 -15 77 -23q73 -10 137 0l19.5 4.5t18 4.5t21 6.5t18.5 7.5q52 27 59 31q-1 -1 -3 -4t-10 -11t-18 -15t-27 -15.5t-36 -13.5q4 -6 9 -12.5t9.5 -11.5t8 -9.5t5.5 -7.5l2 -2q33 1 62 9t46.5 19
t31 22t19.5 17.5l6 6.5q0 46 -8 93.5t-19 83t-22.5 64t-19.5 43.5l-8 15q-73 54 -147 54zM609 529q22 0 38 -16.5t16 -40.5q0 -15 -7 -28.5t-19.5 -21t-27.5 -7.5q-22 0 -38 17t-16 40q0 16 7 29t19.5 20.5t27.5 7.5zM415 529q22 0 38 -16.5t16 -40.5q0 -11 -4 -22
t-11.5 -18.5t-17.5 -12t-21 -4.5q-22 0 -38 17t-16 40.5t16 40t38 16.5z" />
    <glyph glyph-name="salient-spotify" unicode="&#xf1bc;" 
d="M40 438.5q0 128.5 63 237.5t172 172t237.5 63t237 -63t172 -172t63.5 -237.5t-63.5 -237t-172 -172t-237 -63.5t-237.5 63.5t-172 172t-63 237zM185 590q0 -19 13 -32t32 -13q7 0 24 5q82 23 189 23q98 0 190.5 -21t156.5 -58q13 -8 24 -8q18 0 31.5 12.5t13.5 32.5
q0 28 -25 43q-77 45 -180 68t-211 23q-126 0 -224 -29q-14 -5 -24 -16t-10 -30zM217 437q0 -15 11 -26t26 -11q5 0 23 5q75 20 155 20q171 0 300 -76q15 -8 23 -8q16 0 26.5 11t10.5 26q0 25 -21 37q-146 87 -338 87q-94 0 -186 -26q-30 -8 -30 -39zM237 295q0 -12 8.5 -21
t21.5 -9q3 0 23 5q81 16 150 16q139 0 244 -63q12 -7 20 -7q12 0 20.5 8.5t8.5 21.5q0 19 -18 31q-119 71 -275 71q-82 0 -177 -21q-26 -6 -26 -32z" />
  </font>
</defs>
</svg>
